<svg version="1.2" baseProfile="tiny" xmlns="http://www.w3.org/2000/svg" width="1024" height="1024"><polygon fill="#FAD791" points="775.555,810.178 512,748.43 248.446,810.178 512,915.598"/><polygon fill="#D9A741" points="929.939,334.691 512,209.306 512,7.5 929.939,216.477"/><polygon fill="#D9A741" points="775.555,884.723 512,1016.5 512,915.598 775.555,810.178"/><polygon fill="#876929" points="512,1016.5 248.446,884.723 248.446,810.178 512,915.598"/><polygon fill="#876929" points="94.061,334.691 512,209.306 512,7.5 94.061,216.477"/><polygon fill="#624A1E" points="929.939,334.691 512,386.614 94.061,334.691 512,209.306"/><polygon fill="#D9A741" points="734.457,747.965 688.583,761.732 688.583,595.234 734.457,590.65"/><polygon fill="#D9A741" points="578.635,794.714 512,814.694 512,411.097 578.635,417.762"/><polygon fill="#876929" points="335.417,595.234 289.543,590.65 289.543,433.336 335.417,428.765"/><polygon fill="#876929" points="445.366,794.714 512,814.694 512,411.097 445.366,417.762"/><polygon fill="#876929" points="638.289,751.139 688.583,761.732 688.583,595.234 638.289,591.704"/><polygon fill="#D9A741" points="386.983,591.622 335.417,595.234 335.417,428.765 386.983,432.378"/><polygon fill="#FAD791" points="734.457,590.65 684.998,587.488 638.289,591.704 688.583,595.234"/></svg>