<svg xmlns="http://www.w3.org/2000/svg" width="1024" height="1024"><polygon points="636.957,425.568 832.706,410.539 832.706,164.123 636.957,214.982" fill="#8C3123"/><polygon points="713.479,394.018 509.472,364.442 509.472,3.514 713.479,105.517" fill="#E05243"/><polygon points="934.619,425.789 832.706,411.015 832.706,164.123 934.619,215.093" fill="#E05243"/><polygon points="636.957,425.568 830.497,410.697 934.619,425.796 747.652,436.966" fill="#5E1F18"/><polygon points="636.957,599.445 832.706,614.469 832.706,860.891 636.957,810.038" fill="#8C3123"/><polygon points="713.479,630.996 509.472,660.572 509.472,1021.514 713.479,919.504" fill="#E05243"/><polygon points="932.617,599.225 830.704,613.999 830.704,860.891 932.617,809.928" fill="#E05243"/><polygon points="636.957,599.445 830.497,614.316 934.619,599.225 747.652,588.041" fill="#F2B0A9"/><polygon points="383.99,425.568 188.241,410.539 188.241,164.123 383.99,214.982" fill="#E05243"/><polygon points="307.468,394.018 511.475,364.442 511.475,3.514 307.468,105.517" fill="#8C3123"/><polygon points="88.33,425.789 190.243,411.015 190.243,164.123 88.33,215.093" fill="#8C3123"/><polygon points="385.992,425.568 192.438,410.697 88.33,425.796 275.297,436.966" fill="#5E1F18"/><polygon points="383.99,599.445 188.241,614.469 188.241,860.891 383.99,810.038" fill="#E05243"/><polygon points="307.468,630.996 511.475,660.572 511.475,1021.514 307.468,919.504" fill="#8C3123"/><polygon points="88.33,599.225 190.243,613.999 190.243,860.891 88.33,809.928" fill="#8C3123"/><polygon points="385.992,599.445 192.438,614.316 88.33,599.225 275.297,588.041" fill="#F2B0A9"/><polygon points="715.48,630.996 511.475,611.072 307.468,630.996 511.475,660.902" fill="#F2B0A9"/><polygon points="715.48,394.018 511.475,413.714 307.468,394.018 511.475,364.442" fill="#5E1F18"/></svg>