<svg xmlns="http://www.w3.org/2000/svg" width="1024" height="1024"><polygon points="443.751,227.14 512.982,206.401 848.366,307.016 785.308,316.53" fill="#876929"/><polygon points="580.5,227.14 511.27,206.401 175.885,307.016 238.944,316.53" fill="#876929"/><polygon points="512.126,669.146 442.895,658.362 785.308,611.789 848.381,616.732" fill="#FAD791"/><polygon points="512.126,669.146 581.357,658.362 238.944,611.789 175.872,616.732" fill="#FAD791"/><polygon points="932.785,332.353 512.126,206.152 512.126,3.03 932.785,213.36" fill="#D9A741"/><polygon points="932.785,722.553 512.126,872.268 512.126,669.146 932.785,603.561" fill="#D9A741"/><polygon points="848.366,173.028 932.785,215.003 932.785,722.553 848.366,752.584" fill="#D9A741"/><polygon points="637.953,688.766 511.85,713.979 511.85,1021.03 637.953,957.695" fill="#D9A741"/><polygon points="785.308,316.53 848.366,307.016 848.366,616.732 785.308,611.789" fill="#876929"/><polygon points="91.466,332.353 512.126,206.152 512.126,3.03 91.466,213.36" fill="#876929"/><polygon points="91.466,722.553 512.126,872.268 512.126,669.146 91.466,603.561" fill="#876929"/><polygon points="175.885,173.028 91.466,215.003 91.466,722.553 175.885,752.584" fill="#876929"/><polygon points="386.298,688.766 512.402,713.979 512.402,1021.03 386.298,957.695" fill="#876929"/><polygon points="238.944,316.53 175.885,307.016 175.885,616.732 238.944,611.789" fill="#876929"/></svg>