<svg xmlns="http://www.w3.org/2000/svg" width="1024" height="1024"><polygon points="147.001,707.496 513.141,817.363 514.783,754.248 263.317,691.146" fill="#B7CA9D"/><polygon points="514.783,275.121 263.317,333.735 147.001,317.4 513.154,207.546" fill="#3C4929"/><polygon points="875.496,707.496 509.343,817.363 507.714,754.248 759.166,691.146" fill="#B7CA9D"/><polygon points="507.714,275.121 759.18,333.735 875.496,317.4 509.343,207.546" fill="#3C4929"/><polygon points="263.317,691.146 146.988,707.496 146.988,317.4 263.317,333.749" fill="#759C3E"/><path d="M510.751 3.455l-417.627 210.802.193 596.521 417.434 210.678v-1018.001zm-122.115 776.559l-241.635-72.518v-390.096l241.635-72.49v535.104z" fill="#4B612C"/><polygon points="759.18,691.146 875.496,707.496 875.496,317.4 759.18,333.749" fill="#4B612C"/><path d="M510.751 1021.455l418.429-210.678.18-596.521-418.609-210.801v1018zm123.11-776.545l241.635 72.49v390.096l-241.635 72.518v-535.104z" fill="#759C3E"/></svg>