<svg version="1.2" baseProfile="tiny" xmlns="http://www.w3.org/2000/svg" width="1024" height="1024"><polygon fill="#4B612C" points="119.488,451.127 94.17,453.618 94.17,334.623 119.488,327.014"/><polygon fill="#759C3E" points="213.069,339.262 119.488,326.781 119.488,451.018 213.069,455.192"/><polygon fill="#3C4929" points="213.069,455.192 185.78,457.368 94.17,453.618 119.488,451.127"/><polygon fill="#4B612C" points="119.488,576.91 94.17,574.406 94.17,693.414 119.488,701.01"/><polygon fill="#759C3E" points="213.069,688.775 119.488,701.256 119.488,577.033 213.069,572.846"/><polygon fill="#B7CA9D" points="213.069,572.846 185.78,570.656 94.17,574.406 119.488,576.91"/><polygon fill="#4B612C" points="177.815,242.356 248.323,215.97 248.323,439.221 177.815,444.503"/><polygon fill="#759C3E" points="384.753,247.994 248.323,218.352 248.323,439.522 384.753,445.448"/><polygon fill="#3C4929" points="384.753,445.448 309.497,451.127 177.815,444.503 248.336,437.456"/><polygon fill="#4B612C" points="177.815,783.889 248.323,810.055 248.323,588.762 177.815,583.533"/><polygon fill="#759C3E" points="384.753,781.795 248.323,811.697 248.323,588.57 384.753,582.59"/><polygon fill="#B7CA9D" points="384.753,582.59 309.497,576.91 177.815,583.533 248.336,590.582"/><polygon fill="#759C3E" points="929.83,807.523 511.877,1016.5 511.877,7.5 929.83,216.463"/><polygon fill="#4B612C" points="335.307,928.201 511.877,1016.5 511.877,7.5 335.307,95.785"/></svg>