<svg xmlns="http://www.w3.org/2000/svg" width="1024" height="1024"><polygon points="961.25,703.965 511.511,637.896 61.469,704.047 511.235,863.565" fill="#B7CA9D"/><polygon points="736.188,681.431 376.695,765.767 376.695,3.454 736.188,143.573" fill="#759C3E"/><polygon points="496.709,672.746 227.546,720.022 227.546,171.119 496.709,231.651" fill="#759C3E"/><polygon points="414.941,776.371 511.318,805.283 511.235,582.251 414.941,571.854" fill="#4B612C"/><polygon points="376.695,764.91 271.785,733.43 271.785,55.923 376.695,3.468" fill="#4B612C"/><polygon points="511.235,863.565 61.469,704.047 61.469,796.571 511.235,1021.454" fill="#4B612C"/><polygon points="961.25,796.461 511.235,1021.454 511.235,863.565 961.25,703.965" fill="#759C3E"/><polygon points="151.522,696.26 227.546,719.07 227.546,171.105 151.522,200.184" fill="#4B612C"/><polygon points="834.855,550.674 511.235,582.237 511.318,805.283 834.855,707.886" fill="#759C3E"/><polygon points="834.855,550.674 725.804,550.674 414.941,571.854 511.235,582.237" fill="#B7CA9D"/></svg>