<svg xmlns="http://www.w3.org/2000/svg" width="1024" height="1024"><polygon points="511.592,212.405 933.26,336.687 933.26,214.296 511.592,3.456" fill="#759C3E"/><polygon points="848.646,479.083 511.592,462.569 511.592,666.175 848.646,615.28" fill="#759C3E"/><polygon points="174.543,479.083 511.592,462.569 511.592,666.175 174.543,615.28" fill="#4B612C"/><polygon points="511.592,212.405 89.924,336.687 89.924,214.296 511.592,3.456" fill="#4B612C"/><polygon points="89.924,336.687 511.592,212.405 933.26,336.687 511.592,388.161" fill="#3C4929"/><polygon points="736.047,787.322 511.592,865.059 511.592,1021.456 736.047,909.229" fill="#759C3E"/><polygon points="287.144,787.322 511.592,865.059 511.592,1021.456 287.144,909.229" fill="#4B612C"/><polygon points="736.047,787.322 511.592,737.656 287.144,787.322 511.592,865.059" fill="#B7CA9D"/></svg>