<svg xmlns="http://www.w3.org/2000/svg" width="1024" height="1024"><polygon points="933.377,333.449 511.709,385.849 90.042,333.449 511.709,206.959" fill="#6B3A19"/><polygon points="933.377,691.258 511.709,638.857 90.042,691.258 511.709,817.748" fill="#FBBF93"/><polygon points="933.377,333.449 511.709,206.959 511.709,3.354 933.377,214.194" fill="#F58536"/><polygon points="736.15,671.057 511.709,715.959 511.709,308.748 736.15,353.65" fill="#F58536"/><polygon points="689.867,596.344 933.377,571.988 933.377,452.719 689.867,428.376" fill="#F58536"/><polygon points="933.377,691.258 511.709,817.748 511.709,1021.354 933.377,810.513" fill="#F58536"/><polygon points="90.042,333.449 511.709,206.959 511.709,3.354 90.042,214.194" fill="#9D5025"/><polygon points="287.261,671.057 511.709,715.959 511.709,308.748 287.261,353.65" fill="#9D5025"/><polygon points="333.551,596.344 90.042,571.988 90.042,452.719 333.551,428.376" fill="#9D5025"/><polygon points="90.042,691.258 511.709,817.748 511.709,1021.354 90.042,810.513" fill="#9D5025"/></svg>