<svg xmlns="http://www.w3.org/2000/svg" width="1024" height="1024"><polygon points="655.047,1018.986 857.134,917.957 857.134,101.726 654.909,1" fill="#5294CF"/><polygon points="367.437,1018.986 165.35,917.957 165.35,101.726 367.575,1" fill="#205B98"/><rect x="367.575" y="1.007" width="287.32" height="1017.993" fill="#2D72B8"/><polygon points="857.134,763.051 857.134,917.942 962.899,794.034 962.899,686.556 857.741,762.856" fill="#2D72B8"/><polygon points="857.741,257.488 962.899,333.375 962.899,225.876 857.134,101.96 857.134,256.881 857.741,257.081" fill="#2D72B8"/><polygon points="857.134,697.603 857.741,697.465 962.899,640.909 962.899,532.782 857.134,542.503" fill="#2D72B8"/><polygon points="857.741,322.839 857.134,322.701 857.134,477.249 962.899,487.135 962.899,379.036" fill="#2D72B8"/><polygon points="962.899,487.135 857.134,477.249 654.909,469.158 511.229,469.158 367.575,469.158 165.35,477.249 165.35,323.033 165.129,323.144 165.35,322.701 367.575,275.832 511.229,275.832 654.909,275.832 857.134,322.701 931.475,362.218 931.475,336.812 962.899,333.375 857.134,256.881 654.909,194.208 511.229,194.208 367.575,194.208 165.35,256.881 165.35,101.96 59.585,225.862 59.585,334.065 60.414,333.471 91.01,336.812 91.01,362.743 59.585,379.547 59.585,487.218 60.414,487.135 91.01,487.577 91.01,532.782 64.611,533.155 59.585,532.699 59.585,640.385 91.01,657.285 91.01,683.533 60.911,686.833 59.585,685.854 59.585,794.034 165.35,917.957 165.35,763.064 367.575,825.709 511.229,825.709 654.909,825.709 857.728,762.856 962.899,686.972 931.475,683.533 931.475,657.81 857.728,697.465 654.909,744.051 654.909,744.106 511.229,744.106 367.575,744.106 367.575,744.051 164.715,697.465 164.356,696.746 165.35,697.271 165.35,542.503 367.575,550.553 367.575,550.76 511.229,550.76 654.909,550.76 654.909,550.553 857.134,542.503 962.899,533.225 931.475,532.782 931.475,487.577" fill="#1A476F"/></svg>