<svg xmlns="http://www.w3.org/2000/svg" width="1024" height="1024"><polygon points="231.364,807.24 132.833,829.719 132.833,191.591 231.364,214.111" fill="#F58536"/><polygon points="354.306,844.906 231.364,879.841 231.364,142.333 354.306,177.231" fill="#F58536"/><polygon points="512.016,883.596 354.306,941.311 354.306,80.862 512.016,138.563" fill="#F58536"/><polygon points="933.697,809.159 512.016,1020 512.016,2 933.697,212.841" fill="#F58536"/><polygon points="427.956,44.03 512.016,2 512.016,1020 427.956,977.984" fill="#9D5025"/><polygon points="289.246,113.385 354.306,80.854 354.306,941.146 289.246,908.614" fill="#9D5025"/><polygon points="179.531,168.242 231.364,142.326 231.364,879.674 179.531,853.744" fill="#9D5025"/><polygon points="132.833,191.591 90.555,212.73 90.555,809.284 132.833,830.409" fill="#9D5025"/></svg>