<svg xmlns="http://www.w3.org/2000/svg" width="1024" height="1024"><polygon points="638.244,512.455 512.126,512.455 512.126,1021.455 638.244,958.396" fill="#759C3E"/><polygon points="815.366,155.076 879.93,187.357 879.93,382.416 815.366,369.506" fill="#759C3E"/><polygon points="690.271,92.542 512.126,3.455 512.126,512.455 690.271,512.455" fill="#759C3E"/><polygon points="580.335,394.374 815.366,368.816 815.366,155.076 580.335,218.659" fill="#4B612C"/><polygon points="879.93,382.416 654.398,403.583 580.335,394.374 813.129,369.05" fill="#3C4929"/><polygon points="385.98,512.455 512.126,512.455 512.126,3.455 385.98,66.514" fill="#4B612C"/><polygon points="208.885,869.835 144.321,837.553 144.321,642.494 208.885,655.404" fill="#4B612C"/><polygon points="333.954,932.369 512.126,1021.455 512.126,512.455 333.954,512.455" fill="#4B612C"/><polygon points="443.917,630.537 208.885,656.095 208.885,869.835 443.917,806.252" fill="#759C3E"/><polygon points="144.321,642.494 369.826,621.328 443.917,630.537 211.095,655.859" fill="#B7CA9D"/></svg>