<svg xmlns="http://www.w3.org/2000/svg" width="1024" height="1024"><polygon points="932.806,689.959 511.345,637.56 89.913,689.959 511.345,816.408" fill="#99BCE3"/><polygon points="932.806,332.041 511.345,384.44 89.913,332.041 511.345,205.612" fill="#1A476F"/><polygon points="511.359,2 89.913,212.73 89.913,332.041 511.359,205.599" fill="#205B98"/><polygon points="511.359,816.395 89.913,689.973 89.913,809.27 511.359,1020" fill="#205B98"/><polygon points="511.359,664.939 333.201,638.016 333.201,386.042 511.359,359.531" fill="#205B98"/><polygon points="511.359,2 932.806,212.73 932.806,332.041 511.359,205.599" fill="#5294CF"/><polygon points="511.359,816.395 932.806,689.973 932.806,809.27 511.359,1020" fill="#5294CF"/><polygon points="511.359,664.939 689.518,638.016 689.518,386.042 511.359,359.531" fill="#5294CF"/></svg>