<svg version="1.2" baseProfile="tiny" xmlns="http://www.w3.org/2000/svg" width="1024" height="1024" overflow="visible"><polygon fill="#F68635" points="790.772,777.196 355.576,936.166 355.576,85.658 790.772,244.696"/><polygon fill="#F68635" points="233.72,805.635 136.062,827.914 136.062,195.415 233.72,217.736"/><polygon fill="#F68635" points="355.576,842.968 233.72,877.593 233.72,146.585 355.576,181.168"/><polygon fill="#9E5125" points="291.09,117.9 355.576,85.658 355.576,938.355 291.09,906.113"/><polygon fill="#9E5125" points="182.345,172.273 233.72,146.585 233.72,877.429 182.345,851.727"/><polygon fill="#9E5125" points="136.062,195.415 94.156,216.368 94.156,807.66 136.062,828.599"/><g fill="#9E5125"><polygon points="511.891,410.345 511.891,7.5 428.573,49.145 428.573,418.679"/><polygon points="428.573,603.31 428.573,974.869 511.891,1016.5 511.891,611.63"/></g><g fill="#F68635"><polygon points="734.498,432.488 734.498,118.804 511.891,7.5 511.891,410.235"/><polygon points="511.891,610.891 511.891,1016.5 734.498,905.21 734.498,588.83"/></g><g fill="#F68635"><polygon points="929.844,452.017 929.844,216.477 810.534,156.822 810.534,440.097"/><polygon points="810.534,581.275 810.534,867.191 929.844,807.523 929.844,569.451"/></g><polygon fill="#6C3B1A" points="734.498,432.488 653.179,437.688 428.573,418.679 512.465,410.29"/><polygon fill="#FCC093" points="734.498,588.83 657.421,583.958 428.573,603.31 508.14,611.273"/><polygon fill="#9E5125" points="758.174,170.617 810.534,156.397 810.534,440.097 758.174,442.944"/><polygon fill="#9E5125" points="758.174,853.369 810.534,867.685 810.534,581.275 758.174,578.457"/><polygon fill="#FCC093" points="929.844,569.451 881.999,567.481 758.174,578.457 810.534,581.275"/><polygon fill="#6C3B1A" points="929.844,452.017 881.999,454.015 758.174,442.944 810.534,440.097"/></svg>