<svg xmlns="http://www.w3.org/2000/svg" width="1024" height="1024"><polygon points="595.221,512.05 132.27,512.05 132.27,831.859 595.221,726.039" fill="#F58435"/><polygon points="733.835,512.05 230.717,512.05 230.717,881.111 733.835,738.272" fill="#F58435"/><polygon points="843.48,512.05 353.576,512.05 353.576,942.527 843.48,763.306" fill="#F58435"/><polygon points="511.189,1021.326 511.189,512.043 932.607,512.043 932.607,810.638" fill="#F58435"/><polygon points="132.27,512.05 132.27,831.859 90.019,810.734 90.019,512.05" fill="#9D5025"/><polygon points="230.717,512.05 230.717,881.111 178.925,855.209 178.925,512.05" fill="#9D5025"/><polygon points="353.576,512.05 353.576,942.527 288.543,910.024 288.543,512.05" fill="#9D5025"/><polygon points="427.184,979.324 427.184,512.05 511.175,512.05 511.175,1021.34" fill="#9D5025"/><polygon points="932.691,409.626 511.23,337.206 511.23,3.333 932.691,214.043" fill="#F58435"/><polygon points="89.797,409.626 511.244,337.206 511.244,3.333 89.797,214.043" fill="#9D5025"/><polygon points="932.691,409.626 511.23,439.63 89.797,409.626 511.23,337.206" fill="#6B3B19"/></svg>