<svg xmlns="http://www.w3.org/2000/svg" width="1024" height="1024"><polygon points="338.409,359.376 289.972,353.135 245.566,362.041 293.009,367.578" fill="#3C4929"/><polygon points="287.017,433.081 511.475,447.441 735.933,433.081 511.475,410.658" fill="#3C4929"/><polygon points="663.139,359.376 717.762,369.014 777.383,362.041 724.127,351.409" fill="#3C4929"/><polygon points="437.852,765.653 566.264,735.498 690.119,764.466 561.734,802.962" fill="#B7CA9D"/><polygon points="452.074,348.081 385.328,336.579 385.328,155.685 452.074,176.507" fill="#759C3E"/><polygon points="287.017,195.037 287.017,115.67 511.475,3.455 511.475,105.259 385.328,155.685 385.328,334.08 511.475,308.84 511.475,1021.455 444.231,987.847 444.231,892.768 385.328,869.211 385.328,423.25 287.017,433.081 287.017,353.742 245.566,362.041 245.566,211.606" fill="#4B612C"/><polygon points="627.652,61.544 674.958,85.196 735.905,115.67 735.905,195.037 777.383,211.606 777.383,362.027 735.905,353.742 735.905,433.081 683.049,427.807 637.594,423.25 637.594,511.426 637.594,511.937 637.594,512.448 735.933,512.448 735.933,594.051 690.229,598.139 690.229,680.432 578.69,702.607 578.69,797.688 689.98,764.674 690.229,848.555 578.69,892.768 578.69,987.847 511.475,1021.455 511.475,716.057 511.475,614.266 511.475,511.868 511.475,511.302 511.475,410.658 511.475,308.84 570.834,320.714 570.834,176.507 511.475,155.712 511.475,105.259 511.475,3.455" fill="#759C3E"/><polygon points="578.69,132.129 511.475,105.273 385.328,155.685 452.074,176.507" fill="#3C4929"/><polygon points="570.848,176.507 637.594,155.712 637.594,334.094 570.848,320.714" fill="#4B612C"/><polygon points="385.328,155.685 511.475,105.273 538.014,115.877 578.69,132.129 637.594,155.712 570.848,176.507 511.475,155.685 452.074,176.507" fill="#3C4929"/></svg>