<svg version="1.2" baseProfile="tiny" xmlns="http://www.w3.org/2000/svg" width="1024" height="1024" overflow="visible"><polygon fill="#FBBF93" points="931.007,719.676 511.822,658.681 93.185,719.676 512.725,867.164"/><polygon fill="#9D5025" points="512.479,511.671 669.096,511.671 669.096,170.986 512.479,216.668"/><polygon fill="#9D5025" points="669.096,511.671 791.169,511.671 791.169,292.786 669.096,313.507"/><polygon fill="#9D5025" points="791.169,511.671 889.021,511.671 889.021,258.957 791.169,276.775"/><polygon fill="#F58536" points="595.96,49.241 512.479,7.5 512.479,511.671 595.96,511.671"/><polygon fill="#F58536" points="733.69,196.824 669.096,170.986 669.096,511.671 733.69,511.671"/><polygon fill="#F58536" points="840.081,307.458 791.169,292.786 791.169,511.671 840.081,511.671"/><polygon fill="#F58536" points="889.021,258.957 931.007,275.734 931.007,511.671 889.021,511.671"/><polygon fill="#F58536" points="929.393,659.092 511.192,763.333 511.192,612.643 929.393,570.82"/><polygon fill="#F58536" points="931.007,719.676 511.192,867.712 511.192,1016.5 931.007,806.606"/><polygon fill="#9D5025" points="93.185,719.676 511.192,866.617 511.192,1016.5 93.185,807.51"/><polygon fill="#9D5025" points="92.993,570.82 511.192,612.643 511.192,763.333 92.993,659.092"/><polygon fill="#9D5025" points="93.185,511.671 512.479,511.671 512.479,7.5 93.185,216.613"/><polygon fill="#FBBF93" points="929.393,570.82 511.192,553.494 92.993,570.82 511.192,612.643"/></svg>