<svg xmlns="http://www.w3.org/2000/svg" width="1024" height="1024"><polygon points="933.818,761.599 933.818,512.98 678.158,512.98 678.158,832.956 815.57,870.043" fill="#4B612C"/><polygon points="511.723,719.982 813.582,781.302 813.582,154.703 511.723,236.568" fill="#4B612C"/><polygon points="511.723,512.98 511.723,3.456 734.286,114.965" fill="#759C3E"/><polygon points="933.818,512.98 933.818,811.443 815.281,870.733" fill="#759C3E"/><polygon points="933.818,335.665 933.818,213.882 813.582,154.703 511.723,719.982 511.723,1021.456 735.018,909.809" fill="#759C3E"/><polygon points="89.6,761.599 89.6,512.98 345.273,512.98 345.273,832.956 207.875,870.043" fill="#759C3E"/><polygon points="511.723,719.982 209.849,781.302 209.849,154.703 511.723,236.568" fill="#759C3E"/><polygon points="511.723,512.98 511.723,3.456 289.146,114.965" fill="#4B612C"/><polygon points="89.6,512.98 89.6,811.443 208.151,870.733" fill="#4B612C"/><polygon points="89.6,335.665 89.6,213.882 209.849,154.703 511.723,719.982 511.723,1021.456 288.428,909.809" fill="#4B612C"/></svg>