<svg xmlns="http://www.w3.org/2000/svg" width="1024" height="1024"><polygon points="689.522,932.223 511.364,1021.309 511.364,3.309 689.522,92.395" fill="#F58536"/><polygon points="333.206,932.223 511.364,1021.309 511.364,3.309 333.206,92.395" fill="#9D5025"/><polygon points="444.19,373.86 143.532,335.503 143.532,187.225 444.19,257.753" fill="#F58536"/><polygon points="879.195,274.102 578.537,325.783 578.537,447.151 879.195,429.104" fill="#9D5025"/><polygon points="933.031,434.945 879.195,427.958 879.195,274.102 933.031,293.818" fill="#F58536"/><polygon points="89.917,214.039 143.532,187.225 143.532,335.503 89.917,350.084" fill="#9D5025"/><polygon points="444.19,373.86 381.67,382.96 89.917,350.084 143.532,335.503" fill="#6B3A19"/><polygon points="933.031,434.945 634.443,450.989 578.537,447.151 885.258,428.746" fill="#6B3A19"/></svg>