<svg xmlns="http://www.w3.org/2000/svg" width="1024" height="1024"><polygon points="512.112,757.43 865.352,842.912 865.352,179.699 512.112,265.223" fill="#8C3123"/><polygon points="865.365,179.692 933.244,213.624 933.244,809.166 865.365,843.092" fill="#E05243"/><polygon points="666.178,297.954 512.112,259.838 512.112,3.072 666.178,80.098" fill="#E05243"/><polygon points="512.112,1021.072 666.164,944.066 666.164,726.211 512.112,764.32" fill="#E05243"/><polygon points="666.178,621.135 512.112,640.742 512.112,383.982 666.178,403.292" fill="#E05243"/><polygon points="512.112,757.43 158.858,842.912 158.858,179.699 512.112,265.223" fill="#E05243"/><polygon points="158.858,179.692 91.008,213.624 91.008,809.166 158.858,843.092" fill="#8C3123"/><polygon points="358.075,297.954 512.112,259.838 512.112,3.072 358.075,80.098" fill="#8C3123"/><polygon points="512.112,1021.072 358.061,944.066 358.061,726.211 512.112,764.32" fill="#8C3123"/><polygon points="358.075,621.135 512.112,640.742 512.112,383.982 358.075,403.292" fill="#8C3123"/><polygon points="666.178,297.954 512.112,326.032 358.075,297.954 512.112,259.838" fill="#5E1F18"/><polygon points="666.178,726.197 512.112,697.933 358.075,726.197 512.112,764.568" fill="#F2B0A9"/></svg>