<svg xmlns="http://www.w3.org/2000/svg" width="1024" height="1024"><polygon points="395.765,923.957 290.852,894.554 191.628,781.405 302.263,790.567" fill="#B8852E"/><polygon points="395.765,923.957 470.926,766.621 400.692,756.731 302.263,790.567" fill="#D9A741"/><polygon points="153.163,849.341 94.125,832.804 38.328,769.168 98.094,769.433" fill="#B8852E"/><polygon points="153.163,849.341 195.398,760.866 155.908,755.276 98.094,769.433" fill="#D9A741"/><polygon points="3.335,761.164 63.68,773.435 63.68,225.06 3.335,259.424" fill="#876929"/><polygon points="296.772,279.698 296.772,751.771 63.696,773.435 63.696,225.06" fill="#D9A741"/><polygon points="138.114,789.409 241.555,810.246 241.555,137.081 138.114,189.504" fill="#876929"/><polygon points="831.785,326.565 831.785,734.308 241.555,810.263 241.555,137.081" fill="#D9A741"/><polygon points="725.021,1021.03 575.921,979.257 434.99,818.515 592.16,831.562" fill="#B8852E"/><polygon points="725.021,1021.03 831.785,797.546 732,783.423 592.16,831.562" fill="#D9A741"/><polygon points="358.919,832.34 511.045,861.776 511.045,3.03 358.919,79.068" fill="#876929"/><polygon points="511.062,861.776 1019.384,759.94 1019.384,257.175 511.062,3.03" fill="#D9A741"/></svg>