<svg xmlns="http://www.w3.org/2000/svg" width="1024" height="1024"><polygon points="574.533,646.431 143.656,707.045 143.684,316.928 574.561,377.626" fill="#D9A741"/><polygon points="89.834,333.083 511.516,206.62 511.516,3.028 89.834,213.814" fill="#876929"/><polygon points="90,690.946 511.46,817.423 511.433,1021.028 90,810.271" fill="#876929"/><polygon points="933.143,333.166 511.516,206.62 511.516,3.028 933.17,213.896" fill="#D9A741"/><polygon points="932.894,691.029 511.46,817.423 511.433,1021.028 932.894,810.34" fill="#D9A741"/><polygon points="143.656,837.085 89.779,810.16 89.834,213.814 143.711,186.889" fill="#876929"/><polygon points="356.181,621.771 511.46,641.543 511.488,382.403 356.209,402.148" fill="#876929"/><polygon points="199.77,601.859 300.537,614.674 300.564,409.231 199.77,422.059" fill="#876929"/><polygon points="143.684,316.928 511.516,206.62 933.143,333.166 574.837,377.654" fill="#624A1E"/><polygon points="143.656,707.045 511.46,817.423 932.894,691.029 574.533,646.431" fill="#FAD791"/><polygon points="932.921,587.39 511.46,640.576 511.488,382.403 932.921,436.087" fill="#D9A741"/></svg>