<svg xmlns="http://www.w3.org/2000/svg" width="1024" height="1024"><polygon points="511.249,750.275 879.049,836.336 879.049,317.008 511.249,368.786" fill="#8C3123"/><polygon points="533.23,340.101 614.846,354.199 879.049,317.016 617.344,238.486 535.55,258.41" fill="#5E1F18"/><polygon points="932.924,213.902 932.689,213.792 879.035,186.985 511.249,3.078 511.249,206.667 511.249,1021.064 637.393,957.992 637.393,244.513 879.035,317.016 879.035,837.164 932.689,810.352 932.689,333.108 932.924,333.177" fill="#E05243"/><polygon points="286.797,908.838 511.249,1021.078 511.249,3.071 286.797,115.304" fill="#8C3123"/><polygon points="208.013,869.446 89.794,810.323 89.794,213.792 208.013,154.696" fill="#8C3123"/><polygon points="286.797,845.974 208.013,867.141 208.013,154.689 286.797,176.015" fill="#E05243"/></svg>