<svg xmlns="http://www.w3.org/2000/svg" width="1024" height="1024"><polygon points="451.708,735.38 879.41,835.098 879.41,186.945 451.708,287.271" fill="#876929"/><polygon points="814.846,869.423 736.033,908.803 736.033,115.257 814.846,154.664" fill="#D9A741"/><polygon points="933.26,810.189 879.41,837.141 879.41,186.945 933.26,213.87" fill="#D9A741"/><polygon points="451.708,206.055 451.708,818.805 736.033,909.852 736.033,115.257" fill="#876929"/><polygon points="143.801,707.102 509.976,816.955 637.723,778.735 260.088,690.727" fill="#FAD791"/><polygon points="260.088,690.727 143.801,707.102 143.801,316.957 260.088,333.36" fill="#D9A741"/><polygon points="637.723,245.324 260.088,333.36 143.801,316.957 509.976,207.104" fill="#624A1E"/><polygon points="637.723,957.957 511.578,1021.029 511.578,3.029 637.723,66.102" fill="#D9A741"/><path d="M511.578 3.029l-421.654 210.841.221 596.429 421.433 210.73v-1018zm-126.118 776.563l-241.659-72.49v-390.145l241.659-72.489v535.124z" fill="#876929"/></svg>