<svg xmlns="http://www.w3.org/2000/svg" width="1024" height="1024"><polygon points="933.01,364.591 863.194,347.391 863.194,178.771 933.01,213.679" fill="#D9A741"/><polygon points="933.68,364.759 844.365,373.858 770.217,358.961 864.454,347.691" fill="#624A1E"/><polygon points="863.194,178.771 770.217,201.375 770.217,358.961 863.194,347.843" fill="#876929"/><polygon points="932.813,600.812 511.711,664.074 511.711,364.759 932.813,425.485" fill="#D9A741"/><polygon points="822.188,337.282 721.78,312.527 721.78,108.063 822.188,158.268" fill="#D9A741"/><polygon points="621.342,329.023 721.78,312.788 721.78,108.063 621.342,141.077" fill="#876929"/><polygon points="822.188,337.282 725.461,349.955 621.342,329.023 722.4,312.674" fill="#624A1E"/><polygon points="666.246,298.84 511.711,260.733 511.711,3.029 666.246,80.296" fill="#D9A741"/><polygon points="90.407,364.591 160.229,347.391 160.229,178.771 90.407,213.679" fill="#876929"/><polygon points="89.738,364.759 179.068,373.858 253.205,358.961 158.964,347.691" fill="#624A1E"/><polygon points="160.229,178.771 253.205,201.375 253.205,358.961 160.229,347.843" fill="#D9A741"/><polygon points="90.604,600.812 511.711,664.074 511.711,364.759 90.604,425.485" fill="#876929"/><polygon points="201.229,337.282 301.652,312.527 301.652,108.063 201.229,158.268" fill="#876929"/><polygon points="402.07,329.023 301.652,312.788 301.652,108.063 402.07,141.077" fill="#D9A741"/><polygon points="201.229,337.282 297.951,349.955 402.07,329.023 301.022,312.674" fill="#624A1E"/><polygon points="357.177,298.84 511.711,260.733 511.711,3.029 357.177,80.296" fill="#876929"/><polygon points="666.246,298.84 511.711,326.873 357.177,298.84 511.711,260.733" fill="#624A1E"/><polygon points="933.01,659.467 863.194,676.673 863.194,845.283 933.01,810.38" fill="#D9A741"/><polygon points="933.68,659.3 844.365,650.205 770.217,665.098 864.454,676.367" fill="#FAD791"/><polygon points="863.194,845.283 770.217,822.684 770.217,665.098 863.194,676.21" fill="#876929"/><polygon points="822.188,686.781 721.78,711.537 721.78,915.994 822.188,865.795" fill="#D9A741"/><polygon points="621.342,695.02 721.78,711.291 721.78,915.994 621.342,882.981" fill="#876929"/><polygon points="822.188,686.781 725.461,674.084 621.342,695.02 722.4,711.379" fill="#FAD791"/><polygon points="666.246,725.229 511.711,763.311 511.711,1021.029 666.246,943.762" fill="#D9A741"/><polygon points="90.407,659.467 160.229,676.673 160.229,845.283 90.407,810.38" fill="#876929"/><polygon points="89.738,659.3 179.068,650.205 253.205,665.098 158.964,676.367" fill="#FAD791"/><polygon points="160.229,845.283 253.205,822.684 253.205,665.098 160.229,676.21" fill="#D9A741"/><polygon points="201.229,686.781 301.652,711.537 301.652,915.994 201.229,865.795" fill="#876929"/><polygon points="402.07,695.02 301.652,711.291 301.652,915.994 402.07,882.981" fill="#D9A741"/><polygon points="201.229,686.781 297.951,674.084 402.07,695.02 301.022,711.379" fill="#FAD791"/><polygon points="357.177,725.229 511.711,763.311 511.711,1021.029 357.177,943.762" fill="#876929"/><polygon points="666.246,725.229 511.711,697.186 357.177,725.229 511.711,763.311" fill="#FAD791"/></svg>