<svg xmlns="http://www.w3.org/2000/svg" width="1024" height="1024"><polygon points="645.699,583.219 209.568,618.366 209.568,870.049 645.699,751.673" fill="#F58536"/><polygon points="420.485,512.066 207.94,512.066 207.94,154.893 420.485,212.376" fill="#F58536"/><polygon points="427.165,273.992 593.479,231.571 878.64,317.116 726,338.603" fill="#6B3A19"/><polygon points="637.088,512.066 511.04,512.066 511.04,3.35 637.088,66.374" fill="#F58536"/><polygon points="878.64,512.066 932.46,512.066 932.46,214.059 878.64,187.149" fill="#F58536"/><polygon points="932.46,333.262 511.04,206.849 511.04,3.35 932.46,214.052" fill="#F58536"/><polygon points="286.709,512.066 511.04,512.066 511.04,3.35 286.709,115.507" fill="#9D5025"/><polygon points="207.94,155.451 90.724,214.632 90.724,512.625 207.94,512.625" fill="#9D5025"/><polygon points="726.731,512.066 878.64,512.066 878.64,317.116 726.731,338.492" fill="#9D5025"/><polygon points="932.46,600.924 511.04,663.755 511.04,1020.784 932.46,810.06" fill="#F58536"/><polygon points="286.709,631.339 511.04,664.914 511.04,1021.35 286.709,909.185" fill="#9D5025"/><polygon points="90.724,602 209.568,619.512 209.568,870.627 90.724,811.205" fill="#9D5025"/><polygon points="932.46,600.924 729.822,588.408 286.709,630.773 509.053,664.045" fill="#FBBF93"/><polygon points="645.699,583.219 512.034,574.967 90.724,601.146 209.568,618.946" fill="#FBBF93"/></svg>