<svg version="1.2" baseProfile="tiny" xmlns="http://www.w3.org/2000/svg" width="1024" height="1024"><path d="M958.325 909.288h-15.032v46.508h-6.082v-46.508h-14.951v-5.491h36.065v5.491zm57.462 46.508h-6.068v-34.874c0-2.766.188-6.15.498-10.146h-.121c-.605 2.348-1.117 3.996-1.575 5.033l-17.75 39.987h-2.96l-17.764-39.698c-.498-1.158-1.037-2.934-1.548-5.322h-.148c.202 2.059.283 5.483.283 10.227v34.794h-5.854v-51.999h8.021l15.974 36.234c1.212 2.806 2.02 4.871 2.396 6.23h.202c1.05-2.806 1.884-4.952 2.517-6.358l16.257-36.106h7.643v51.998z"/><polygon points="889.773,491.898 889.773,64.711 399.082,136.304 399.082,491.898"/><polygon points="364.5,141.343 8.166,193.322 8.166,491.898 364.5,491.898"/><polygon points="8.166,526.483 8.166,828.861 364.5,881.432 364.5,526.483"/><polygon points="399.082,886.552 889.773,958.932 889.773,526.483 399.082,526.483"/></svg>