<svg version="1.2" baseProfile="tiny" xmlns="http://www.w3.org/2000/svg" width="1024" height="1024"><path d="M302.092 470.067l-23.796 84.25h-11.572l-17.333-61.572c-.742-2.622-1.195-5.482-1.35-8.578h-.235c-.235 2.9-.745 5.721-1.527 8.46l-17.448 61.689h-11.458l-24.676-84.25h10.867l17.921 64.624c.742 2.706 1.212 5.526 1.41 8.467h.295c.195-2.074.799-4.901 1.82-8.467l18.626-64.624h9.458l17.86 65.1c.625 2.229 1.095 4.854 1.41 7.87h.235c.154-2.035.685-4.734 1.588-8.111l17.212-64.859h10.693zm13.267 8.813c-1.726 0-3.193-.588-4.408-1.763-1.212-1.175-1.819-2.662-1.819-4.465 0-1.8.607-3.3 1.819-4.496 1.215-1.192 2.683-1.793 4.408-1.793 1.763 0 3.26.601 4.495 1.793 1.232 1.195 1.85 2.696 1.85 4.496 0 1.726-.618 3.192-1.85 4.408-1.235 1.212-2.732 1.82-4.495 1.82zm4.701 75.437h-9.635v-60.162h9.635v60.162zm64.754 0h-9.635v-34.312c0-12.768-4.663-19.153-13.983-19.153-4.818 0-8.803 1.813-11.955 5.435-3.156 3.623-4.73 8.195-4.73 13.718v34.312h-9.635v-60.162h9.635v9.988h.235c4.542-7.598 11.123-11.398 19.741-11.398 6.581 0 11.613 2.125 15.098 6.375 3.488 4.25 5.23 10.391 5.23 18.415v36.782zm68.545 0h-9.635v-10.227h-.235c-4.465 7.762-11.36 11.636-20.68 11.636-7.561 0-13.6-2.692-18.126-8.077-4.522-5.385-6.785-12.724-6.785-22.003 0-9.951 2.504-17.921 7.52-23.911 5.012-5.996 11.69-8.991 20.036-8.991 8.262 0 14.275 3.253 18.035 9.753h.235v-37.249h9.635v89.069zm-9.635-27.201v-8.876c0-4.852-1.608-8.964-4.818-12.335-3.213-3.367-7.285-5.052-12.22-5.052-5.875 0-10.498 2.155-13.865 6.462-3.371 4.311-5.053 10.26-5.053 17.86 0 6.93 1.615 12.408 4.848 16.417 3.229 4.016 7.567 6.023 13.013 6.023 5.365 0 9.723-1.935 13.073-5.815 3.346-3.873 5.022-8.768 5.022-14.684zm51.755 28.611c-8.894 0-15.991-2.812-21.298-8.426-5.308-5.627-7.96-13.08-7.96-22.359 0-10.105 2.759-17.999 8.285-23.676 5.52-5.68 12.983-8.521 22.383-8.521 8.967 0 15.971 2.76 21 8.286 5.035 5.52 7.554 13.18 7.554 22.97 0 9.595-2.713 17.283-8.138 23.058-5.426 5.781-12.701 8.668-21.826 8.668zm.705-54.874c-6.19 0-11.085 2.105-14.688 6.315-3.606 4.213-5.405 10.018-5.405 17.417 0 7.131 1.819 12.751 5.466 16.867 3.639 4.109 8.517 6.164 14.627 6.164 6.228 0 11.016-2.015 14.366-6.05 3.347-4.035 5.022-9.77 5.022-17.216 0-7.521-1.676-13.312-5.022-17.388-3.351-4.071-8.138-6.109-14.366-6.109zm116.084-6.698l-18.035 60.162h-9.991l-12.396-43.067c-.47-1.645-.785-3.501-.939-5.58h-.235c-.114 1.41-.53 3.23-1.235 5.466l-13.449 43.181h-9.635l-18.217-60.162h10.105l12.455 45.235c.39 1.377.665 3.176.826 5.412h.47c.114-1.726.47-3.565 1.055-5.526l13.865-45.121h8.815l12.456 45.356c.39 1.45.685 3.25.88 5.405h.47c.08-1.531.409-3.331 1-5.405l12.221-45.356h9.514zm4.464 57.987v-10.341c5.251 3.881 11.025 5.815 17.33 5.815 8.46 0 12.69-2.813 12.69-8.454 0-1.604-.362-2.975-1.081-4.082-.726-1.121-1.705-2.108-2.941-2.975-1.235-.859-2.686-1.632-4.344-2.316-1.665-.685-3.458-1.396-5.379-2.142-2.665-1.062-5.002-2.129-7.022-3.21-2.015-1.074-3.7-2.289-5.05-3.64-1.35-1.35-2.37-2.887-3.055-4.612-.686-1.723-1.027-3.737-1.027-6.05 0-2.82.645-5.318 1.934-7.49 1.296-2.175 3.021-3.995 5.17-5.465 2.155-1.467 4.613-2.575 7.379-3.32 2.76-.742 5.607-1.115 8.548-1.115 5.204 0 9.87.903 13.986 2.703v9.753c-4.432-2.897-9.521-4.348-15.282-4.348-1.799 0-3.424.205-4.875.618-1.45.41-2.692.99-3.732 1.732-1.034.745-1.84 1.635-2.404 2.672-.57 1.041-.853 2.186-.853 3.438 0 1.568.282 2.877.853 3.938.564 1.055 1.396 1.994 2.491 2.82 1.102.819 2.431 1.564 3.995 2.229 1.571.664 3.351 1.396 5.352 2.175 2.659 1.021 5.049 2.068 7.164 3.143s3.915 2.29 5.405 3.64c1.491 1.356 2.632 2.914 3.438 4.673.806 1.767 1.202 3.861 1.202 6.285 0 2.981-.651 5.566-1.967 7.755-1.31 2.202-3.062 4.022-5.258 5.466-2.195 1.45-4.721 2.531-7.581 3.229-2.854.712-5.848 1.061-8.983 1.061-6.192 0-11.557-1.195-16.103-3.585zm69.348-1.236v-11.63c1.329 1.175 2.927 2.236 4.787 3.169 1.859.94 3.82 1.732 5.875 2.384 2.055.645 4.123 1.142 6.197 1.498 2.075.355 3.995.53 5.762.53 6.069 0 10.602-1.128 13.597-3.385 3.001-2.249 4.498-5.485 4.498-9.723 0-2.269-.503-4.243-1.497-5.929-1-1.685-2.384-3.223-4.143-4.612-1.766-1.391-3.848-2.727-6.258-3.995-2.411-1.276-5.003-2.612-7.789-4.025-2.935-1.487-5.674-2.998-8.226-4.522-2.544-1.531-4.753-3.213-6.634-5.056-1.88-1.84-3.363-3.925-4.432-6.255-1.081-2.33-1.625-5.062-1.625-8.195 0-3.841.847-7.178 2.531-10.018 1.68-2.84 3.895-5.18 6.635-7.023 2.746-1.84 5.868-3.209 9.373-4.109 3.505-.903 7.077-1.353 10.723-1.353 8.307 0 14.356.997 18.156 2.998v11.103c-4.976-3.444-11.36-5.17-19.149-5.17-2.162 0-4.317.225-6.466.675-2.156.454-4.076 1.186-5.762 2.203-1.686 1.021-3.055 2.333-4.109 3.938-1.061 1.608-1.591 3.565-1.591 5.875 0 2.156.403 4.016 1.208 5.583.8 1.564 1.988 2.995 3.553 4.287 1.571 1.292 3.478 2.548 5.728 3.76 2.256 1.215 4.848 2.548 7.788 3.995 3.016 1.49 5.876 3.055 8.575 4.7 2.706 1.645 5.076 3.468 7.11 5.462 2.034 2.001 3.652 4.21 4.848 6.641s1.793 5.21 1.793 8.34c0 4.156-.812 7.668-2.438 10.548-1.632 2.881-3.82 5.225-6.58 7.023-2.767 1.8-5.949 3.103-9.548 3.901-3.606.806-7.399 1.208-11.401 1.208-1.33 0-2.975-.107-4.936-.322-1.953-.215-3.954-.53-5.989-.939-2.041-.416-3.968-.92-5.788-1.531-1.818-.606-3.282-1.284-4.376-2.029zm109.473-24.26h-42.476c.154 6.694 1.954 11.864 5.405 15.511 3.444 3.639 8.185 5.459 14.214 5.459 6.775 0 13.006-2.229 18.687-6.694v9.044c-5.291 3.841-12.28 5.761-20.976 5.761-8.501 0-15.182-2.732-20.036-8.198-4.854-5.458-7.285-13.146-7.285-23.058 0-9.359 2.652-16.987 7.963-22.883 5.305-5.895 11.898-8.843 19.768-8.843 7.876 0 13.966 2.548 18.277 7.638 4.304 5.093 6.459 12.163 6.459 21.208v5.055zm-9.87-8.171c-.04-5.556-1.384-9.887-4.022-12.979-2.646-3.096-6.318-4.643-11.019-4.643-4.546 0-8.399 1.625-11.575 4.878-3.17 3.25-5.13 7.5-5.875 12.744h32.491zm54.038-14.567c-1.686-1.293-4.109-1.938-7.285-1.938-4.109 0-7.547 1.938-10.307 5.815-2.767 3.877-4.144 9.166-4.144 15.86v30.672h-9.635v-60.162h9.635v12.395h.235c1.37-4.23 3.465-7.527 6.285-9.897 2.819-2.37 5.969-3.555 9.46-3.555 2.505 0 4.425.275 5.755.822v9.988zm60.994-9.753l-23.971 60.162h-9.461l-22.795-60.162h10.575l15.275 43.711c1.135 3.217 1.84 6.01 2.121 8.4h.229c.39-3.015 1.021-5.734 1.88-8.165l15.98-43.946h10.167zm54.112 32.491h-42.482c.154 6.694 1.954 11.864 5.405 15.511 3.444 3.639 8.185 5.459 14.214 5.459 6.775 0 13.006-2.229 18.687-6.694v9.044c-5.291 3.841-12.28 5.761-20.976 5.761-8.501 0-15.182-2.732-20.036-8.198-4.854-5.458-7.285-13.146-7.285-23.058 0-9.359 2.652-16.987 7.963-22.883 5.305-5.895 11.898-8.843 19.768-8.843 7.876 0 13.966 2.548 18.271 7.638 4.311 5.093 6.473 12.163 6.473 21.208v5.055zm-9.877-8.171c-.04-5.556-1.384-9.887-4.022-12.979-2.646-3.096-6.318-4.643-11.019-4.643-4.545 0-8.399 1.625-11.575 4.878-3.17 3.25-5.13 7.5-5.875 12.744h32.491zm52.581-14.567c-1.686-1.293-4.116-1.938-7.285-1.938-4.116 0-7.554 1.938-10.313 5.815s-4.143 9.166-4.143 15.86v30.672h-9.636v-60.162h9.636v12.395h.234c1.37-4.23 3.472-7.527 6.292-9.897 2.819-2.37 5.969-3.555 9.454-3.555 2.504 0 4.425.275 5.761.822v9.988zm12.495 3.065c-2.128 0-3.947-.749-5.452-2.25-1.497-1.497-2.249-3.313-2.249-5.445s.752-3.948 2.249-5.449c1.505-1.507 3.324-2.256 5.452-2.256 2.129 0 3.941.749 5.439 2.256 1.504 1.5 2.256 3.317 2.256 5.449s-.752 3.948-2.256 5.445c-1.497 1.502-3.31 2.25-5.439 2.25zm.014-14.191c-1.793 0-3.33.631-4.6 1.896-1.275 1.272-1.906 2.8-1.906 4.6 0 1.793.631 3.32 1.906 4.583 1.27 1.272 2.807 1.904 4.6 1.904 1.8 0 3.317-.631 4.579-1.904 1.27-1.262 1.894-2.79 1.894-4.583 0-1.799-.624-3.327-1.894-4.6-1.262-1.265-2.779-1.896-4.579-1.896zm3.727 11.314h-1.772l-1.061-2.35c-.544-1.186-1.128-1.773-1.753-1.773h-.665v4.123h-1.504v-9.8h2.76c1.142 0 2.021.239 2.639.719.625.48.934 1.131.934 1.954 0 .665-.215 1.239-.651 1.715-.443.47-1.048.792-1.826.957v.037c.537.118 1.081.722 1.618 1.81l1.281 2.608zm-5.251-8.528v3.146h1.209c1.35 0 2.027-.527 2.027-1.582 0-.607-.181-1.021-.55-1.235-.363-.222-.94-.329-1.726-.329h-.96zm-846.838 81.551h-2.444v7.567h-.991v-7.567h-2.434v-.893h5.869v.893zm9.35 7.568h-.987v-5.674c0-.45.03-1 .081-1.651h-.02c-.098.383-.182.651-.255.819l-2.887 6.506h-.483l-2.891-6.459c-.081-.188-.168-.477-.252-.866h-.023c.034.336.047.893.047 1.665v5.66h-.954v-8.46h1.306l2.598 5.896c.198.456.329.792.39 1.014h.034c.171-.457.305-.806.41-1.034l2.646-5.875h1.242v8.459z"/><polygon points="150.525,509.206 150.525,439.697 70.684,451.347 70.684,509.206"/><polygon points="65.057,452.166 7.077,460.623 7.077,509.206 65.057,509.206"/><polygon points="7.077,514.832 7.077,564.033 65.057,572.587 65.057,514.832"/><polygon points="70.684,573.42 150.525,585.197 150.525,514.832 70.684,514.832"/></svg>