<svg version="1.2" baseProfile="tiny" xmlns="http://www.w3.org/2000/svg" width="1024" height="1024"><path fill="#c00" d="M664.498 742.675l13.789 27.664h-11.668l-13.406-26.79h-15.24v26.79h-9.932v-67.711h29.607c11.771 0 21.702 6.288 21.702 20.222.001 10.828-5.689 17.506-14.852 19.825zm-6.85-30.472h-19.676v21.767h19.676c6.751 0 11.476-3.48 11.476-10.834 0-7.063-4.626-10.933-11.476-10.933z"/><path fill="#c00" d="M734.316 748.484h-33.47c1.063 9.768 6.56 13.929 12.736 13.929 4.242 0 7.617-1.546 10.993-4.062l5.887 6.382c-4.435 4.254-9.74 6.673-17.461 6.673-11.86 0-21.895-9.574-21.895-26.405 0-17.22 9.069-26.509 22.18-26.509 14.371 0 21.319 11.702 21.319 25.443.001 1.831-.191 3.484-.289 4.549zm-21.703-20.996c-6.658 0-10.709 4.641-11.579 12.769h23.533c-.477-6.964-3.755-12.769-11.954-12.769z"/><path fill="#c00" d="M777.421 770.339v-4.832c-3.666 3.386-7.908 5.898-13.214 5.898-10.899 0-19.482-7.927-19.482-27.279 0-17.411 9.453-25.635 19.966-25.635 5.113 0 9.936 2.709 12.735 5.805v-19.348l9.838-5.128v70.519h-9.843zm.099-35.981c-2.219-3-6.85-6.677-11.865-6.677-7.136 0-10.993 5.419-10.993 16.154 0 12.768 4.05 18.375 11.383 18.375 4.724 0 8.872-3.193 11.476-6.477v-21.375z"/><path fill="#c00" d="M870.581 770.339v-30.373h-31.063v30.373h-10.122v-67.711h10.122v27.374h31.063v-27.374h10.122v67.711h-10.122z"/><path fill="#c00" d="M925.827 770.339v-5.023c-3.47 3.479-8.392 6.09-13.888 6.09-8.198 0-17.554-4.639-17.554-17.121 0-11.317 8.681-16.445 20.157-16.445 4.729 0 8.489.676 11.284 1.936v-3.776c0-5.513-3.376-8.608-9.548-8.608-5.206 0-9.261.968-13.213 3.194l-3.858-7.542c4.823-3.001 10.227-4.551 17.362-4.551 11.284 0 19.005 5.513 19.005 17.028v34.819h-9.747v-.001zm0-21.661c-2.697-1.357-6.172-2.231-11.575-2.231-6.362 0-10.417 2.902-10.417 7.547 0 5.024 3.184 8.415 9.738 8.415 5.31 0 9.936-3.287 12.25-6.48v-7.25h.004z"/><path fill="#c00" d="M974.046 769.081c-2.417 1.356-5.787 2.32-9.743 2.32-7.043 0-11.384-4.35-11.384-13.445v-29.307h-7.233v-9.097h7.233v-14.511l9.744-5.222v19.732h12.539v9.097h-12.539v27.569c0 4.738 1.541 6.096 5.206 6.096 2.604 0 5.498-.968 7.328-2.033l-1.151 8.801z"/><path fill="#c00" d="M505.936 464.694c16.716-8.392 28.094-23.954 28.094-43.113 0-44.654-40.333-54.262-77.094-53.633h-154.764v142.579c0 20.705-7.197 27.875-20.012 27.875-13.771 0-21.515-7.767-21.515-21.874v-19.746h-52.301v9.247c0 47.682 18.224 80.296 74.692 80.296 46.06 0 70.413-20.456 74.136-60.851v56.37h102.444c45.704 0 83.05-15.567 83.05-66.498-.002-24.256-14.006-44.031-36.73-50.652zm-93.187-53.628h42.988c11.673 0 22.719 5.128 22.719 20.686 0 15.276-13.139 20.371-22.719 20.371h-42.988v-41.057zm44.492 126.153h-44.492v-49.162h44.492c16.743 0 29.891 6.316 29.891 25.146 0 17.704-12.254 24.016-29.891 24.016z"/><path fill="#c00" d="M429.511 734.12c0-36.136-29.241-65.494-65.29-65.494-36.12 0-65.342 29.358-65.342 65.494 0 36.2 29.223 65.498 65.342 65.498 36.05 0 65.29-29.298 65.29-65.498z"/><path fill="#c00" d="M256.009 713.458c0-32.018-25.907-57.99-57.859-57.99-31.948 0-57.836 25.968-57.836 57.99 0 32.045 25.883 58.027 57.836 58.027 31.952 0 57.859-25.982 57.859-58.027z"/><path fill="#c00" d="M125.302 608.647c0-28.911-23.337-52.363-52.208-52.363-28.88 0-52.254 23.452-52.254 52.363 0 28.994 23.375 52.445 52.254 52.445 28.866.001 52.208-23.45 52.208-52.445z"/><path fill="#c00" d="M101.052 462.769c0-25.856-20.859-46.752-46.612-46.752-25.748 0-46.65 20.892-46.65 46.752 0 25.828 20.902 46.791 46.65 46.791 25.752-.001 46.612-20.968 46.612-46.791z"/><path fill="#c00" d="M166.426 331.771c0-21.69-17.586-39.287-39.2-39.287-21.627 0-39.186 17.596-39.186 39.287 0 21.709 17.559 39.291 39.186 39.291 21.614 0 39.2-17.582 39.2-39.291z"/><path fill="#c00" d="M278.333 273.752c0-19.629-15.849-35.553-35.426-35.553-19.572 0-35.45 15.923-35.45 35.553 0 19.662 15.883 35.586 35.45 35.586 19.582 0 35.426-15.924 35.426-35.586z"/><path fill="#c00" d="M395.912 255.029c0-16.54-13.34-29.946-29.846-29.946-16.462 0-29.858 13.406-29.858 29.946 0 16.558 13.396 29.96 29.858 29.96 16.505 0 29.846-13.402 29.846-29.96z"/><path fill="#61615C" d="M942.983 488.986c-23.294-5.081-58.908-7.767-58.908-22.479 0-10.801 13.479-11.679 21.819-11.679 6.27 0 11.912 1.212 16.14 3.884 4.14 2.705 6.536 6.903 6.536 13.458h46.912c-1.802-40.413-37.364-50.312-71.353-50.312-28.319 0-65.107 8.838-70.197 40.104-6.954-31.843-39.069-40.104-69.968-40.104-30.482 0-72.394 10.2-72.394 47.645 0 .663.099 1.226.112 1.869-11.822-29.566-39.753-49.514-75.68-49.514-38.858 0-67.913 22.762-77.736 56.333 7.511 10.134 11.463 23.353 11.463 37.156 0 11.33-1.799 21.36-5.202 30.142 13.358 24.762 39.064 40.837 71.476 40.837 34.434 0 61.445-18.183 74.051-45.64 6.62 35.262 41.025 45.64 74.715 45.64 28.97 0 60.964-9.52 71.073-36.497 10.465 27.937 41.626 36.497 72.206 36.497 34.939 0 74.383-13.764 74.383-55.417-.004-12.879-8.105-35.612-39.448-41.923zm-326.979 58.405c-23.622 0-30.801-23.34-30.801-43.143 0-19.747 7.179-43.461 30.801-43.461 23.594 0 31.058 23.719 31.058 43.461-.005 19.808-7.464 43.143-31.058 43.143zm148.466 5.958c-7.154 0-14.047-1.746-18.832-5.363-5.048-3.893-8.372-9.584-8.372-17.351h-43.349c2.533-8.228 3.933-17.065 3.933-26.387 0-4.349-.388-8.565-.955-12.707 11.88 20.545 41.696 22.545 66.69 28.894 8.925 2.071 24.774 4.509 24.774 16.46 0 12.302-14.07 16.454-23.889 16.454zm143.274 0c-7.149 0-14.038-1.746-18.828-5.363-5.047-3.893-8.372-9.584-8.372-17.351h-41.4c-.107-12.919-8.302-35.379-39.438-41.648-23.29-5.081-57.346-7.767-57.346-22.479 0-10.801 15.035-11.679 23.375-11.679 6.273 0 11.912 1.212 16.14 3.884 4.145 2.705 6.537 6.903 6.537 13.458h45.044c1.807 39.23 42.136 40.324 73.404 48.27 8.929 2.071 24.773 4.508 24.773 16.459.005 12.297-14.07 16.449-23.889 16.449z"/><path fill="#61615C" d="M986.988 394.889h4.518l6.799 11.205h4.406l-7.355-11.411c3.777-.479 6.648-2.489 6.648-7.086 0-5.161-2.987-7.387-9.074-7.387h-9.842v25.884h3.9v-11.205zm0-3.353v-8.035h5.352c2.655 0 5.619.62 5.619 3.827 0 3.978-2.964 4.208-6.271 4.208h-4.7z"/><path fill="#61615C" d="M1016.912 393.198c0 13.994-11.331 25.32-25.279 25.32-13.982 0-25.313-11.327-25.313-25.32 0-14.027 11.331-25.382 25.313-25.382 13.948.005 25.279 11.355 25.279 25.382zm-25.284-20.868c-11.537 0-20.846 9.307-20.846 20.869 0 11.51 9.309 20.812 20.846 20.812 11.471 0 20.779-9.303 20.779-20.812.005-11.562-9.308-20.869-20.779-20.869z"/><path fill="#61615C" d="M514.542 771.401c-5.112 0-9.936-2.705-12.731-5.801v4.738h-9.842v-65.391l9.842-5.128v24.569c3.662-3.391 7.904-5.903 13.213-5.903 10.896 0 19.479 7.932 19.479 27.279 0 17.42-9.449 25.637-19.961 25.637zm-1.353-43.719c-4.729 0-8.877 3.192-11.477 6.485v21.376c2.219 3 6.846 6.673 11.86 6.673 7.137 0 11-5.41 11-16.149 0-12.774-4.051-18.385-11.383-18.385z"/><path fill="#61615C" d="M564.587 788.235h-10.512l7.328-18.863-18.617-49.819h10.9l8.292 24.865c1.541 4.446 3.858 11.993 4.434 14.792.871-2.996 2.993-10.251 4.534-14.6l8.587-25.058h10.512l-25.458 68.683z"/></svg>