<svg version="1.2" baseProfile="tiny" xmlns="http://www.w3.org/2000/svg" width="1024" height="1024"><path fill-rule="evenodd" fill="#46483E" d="M158.008 519.943c0-2.936-1.544-5.633-4.078-7.087l-67.536-38.867c-1.143-.672-2.423-1.021-3.719-1.074h-.698c-1.291.053-2.57.402-3.729 1.074l-67.536 38.867c-2.518 1.455-4.083 4.152-4.083 7.087l.147 104.657c0 1.459.756 2.813 2.037 3.522 1.253.757 2.803.757 4.052 0l40.137-22.983c2.539-1.507 4.083-4.168 4.083-7.077v-48.891c0-2.914 1.545-5.617 4.073-7.062l17.09-9.844c1.275-.74 2.666-1.1 4.089-1.1 1.391 0 2.819.359 4.057 1.1l17.085 9.844c2.528 1.444 4.078 4.147 4.078 7.062v48.891c0 2.909 1.565 5.591 4.089 7.077l40.126 22.983c1.259.757 2.83.757 4.078 0 1.243-.709 2.026-2.063 2.026-3.522l.132-104.657z"/><path fill-rule="evenodd" fill="#46483E" d="M518.635 376.075c-1.264-.704-2.803-.688-4.057.045-1.243.732-2.01 2.07-2.01 3.518v103.645c0 1.019-.545 1.963-1.423 2.473-.884.511-1.973.511-2.862 0l-16.911-9.746c-2.528-1.455-5.633-1.452-8.151.002l-67.565 38.992c-2.526 1.457-4.081 4.149-4.081 7.063v77.999c0 2.915 1.555 5.607 4.078 7.066l67.558 39.021c2.528 1.459 5.638 1.459 8.161 0l67.573-39.021c2.523-1.459 4.079-4.151 4.079-7.066v-194.431c0-2.957-1.598-5.684-4.185-7.125l-40.204-22.435zm-6.268 198.364c0 .729-.392 1.401-1.021 1.766l-23.2 13.367c-.629.365-1.401.365-2.031 0l-23.199-13.367c-.632-.364-1.021-1.036-1.021-1.766v-26.787c0-.729.389-1.401 1.019-1.766l23.197-13.398c.635-.365 1.407-.365 2.042 0l23.195 13.398c.629.364 1.021 1.036 1.021 1.766v26.787z"/><path fill-rule="evenodd" fill="#46483E" d="M760.35 546.955c2.518-1.46 4.062-4.147 4.062-7.057v-18.899c0-2.909-1.545-5.599-4.062-7.059l-67.129-38.976c-2.523-1.468-5.645-1.471-8.172-.011l-67.542 38.991c-2.523 1.457-4.078 4.15-4.078 7.064v77.978c0 2.931 1.576 5.639 4.12 7.088l67.119 38.243c2.475 1.418 5.511 1.428 7.997.048l40.597-22.565c1.291-.719 2.095-2.068 2.1-3.538.012-1.471-.771-2.83-2.047-3.565l-67.965-39.01c-1.27-.725-2.052-2.079-2.052-3.539v-24.438c0-1.454.777-2.803 2.042-3.533l21.152-12.197c1.259-.725 2.814-.725 4.073 0l21.163 12.197c1.264.73 2.042 2.079 2.042 3.533v19.228c0 1.46.782 2.809 2.047 3.538 1.265.726 2.819.72 4.083-.01l40.45-23.511z"/><path fill-rule="evenodd" fill="#8CC84B" d="M280.862 474.544c2.523-1.457 5.633-1.457 8.157 0l67.555 38.983c2.525 1.458 4.081 4.15 4.081 7.07v78.025c0 2.914-1.555 5.606-4.078 7.066l-67.555 39.016c-2.526 1.459-5.636 1.459-8.162 0l-67.539-39.016c-2.523-1.46-4.078-4.152-4.078-7.066v-78.031c0-2.914 1.555-5.606 4.081-7.064l67.538-38.983z"/><path fill="#8CC84B" d="M891.519 645.815c-2.327 0-4.645-.608-6.681-1.788l-21.27-12.584c-3.174-1.771-1.623-2.4-.576-2.766 4.236-1.471 5.094-1.81 9.616-4.375.471-.27 1.095-.164 1.582.117l16.339 9.7c.593.333 1.428.333 1.973 0l63.702-36.767c.592-.339.973-1.016.973-1.72v-73.513c0-.72-.381-1.396-.989-1.757l-63.675-36.738c-.587-.344-1.37-.344-1.962 0l-63.659 36.749c-.619.35-1.011 1.047-1.011 1.746v73.513c0 .704.392 1.365 1.006 1.698l17.449 10.087c9.469 4.729 15.266-.847 15.266-6.448v-72.577c0-1.026.825-1.841 1.852-1.841h8.077c1.01 0 1.846.814 1.846 1.841v72.577c0 12.637-6.882 19.884-18.862 19.884-3.682 0-6.58 0-14.673-3.983l-16.704-9.621c-4.126-2.381-6.681-6.845-6.681-11.616v-73.513c0-4.779 2.555-9.239 6.681-11.613l63.701-36.81c4.03-2.28 9.389-2.28 13.388 0l63.696 36.81c4.126 2.385 6.691 6.834 6.691 11.613v73.513c0 4.771-2.565 9.215-6.691 11.616l-63.696 36.777c-2.038 1.181-4.349 1.789-6.708 1.789z"/><path fill="#8CC84B" d="M911.195 595.168c-27.875 0-33.715-12.795-33.715-23.521 0-1.026.819-1.841 1.84-1.841h8.236c.92 0 1.688.666 1.83 1.56 1.243 8.385 4.951 12.621 21.809 12.621 13.42 0 19.133-3.036 19.133-10.156 0-4.104-1.619-7.15-22.476-9.197-17.429-1.72-28.209-5.576-28.209-19.519 0-12.849 10.833-20.519 28.997-20.519 20.406 0 30.504 7.083 31.785 22.279.047.529-.139 1.031-.487 1.418-.349.365-.836.587-1.349.587h-8.268c-.857 0-1.613-.608-1.788-1.438-1.983-8.817-6.808-11.637-19.894-11.637-14.652 0-16.355 5.104-16.355 8.923 0 4.634 2.01 5.982 21.793 8.601 19.576 2.592 28.875 6.253 28.875 20.016.001 13.879-11.572 21.823-31.757 21.823z"/><path d="M999.033 473.867v1.888h-5.358v13.97h-2.163v-13.97h-5.343v-1.888h12.864zm1.914 0h3.079l4.554 13.403 4.533-13.403h3.058v15.858h-2.053v-9.357c0-.328.006-.862.017-1.603.021-.762.031-1.566.031-2.417l-4.533 13.377h-2.126l-4.57-13.377v.477c0 .391 0 .983.026 1.788.016.788.037 1.375.037 1.756v9.357h-2.053v-15.859z" fill="#8CC84B"/><path fill-rule="evenodd" fill="#8CC84B" d="M688.137 543.3c.487-.28 1.08-.28 1.566 0l12.965 7.479c.486.28.782.793.782 1.354v14.975c0 .556-.296 1.074-.782 1.354l-12.965 7.479c-.486.28-1.079.28-1.566 0l-12.953-7.479c-.486-.28-.783-.799-.783-1.354v-14.975c0-.561.297-1.073.783-1.354l12.953-7.479z"/></svg>