<svg xmlns="http://www.w3.org/2000/svg" width="1024" height="1024"><radialGradient id="a" cx="283.892" cy="349.229" r="662.452" gradientTransform="translate(26.52 -9.307)" gradientUnits="userSpaceOnUse"><stop offset="0" stop-color="#fff"/><stop offset=".5" stop-color="#4C6B96"/><stop offset="1" stop-color="#231F20"/></radialGradient><path fill="url(#a)" d="M512 777.376c278.612 0 504.48-118.814 504.48-265.376 0-146.561-225.868-265.376-504.48-265.376s-504.48 118.815-504.48 265.376c0 146.562 225.868 265.376 504.48 265.376z"/><path fill="#6280B6" d="M512 757.672c267.729 0 484.772-109.992 484.772-245.672 0-135.679-217.044-245.673-484.772-245.673-267.729 0-484.774 109.994-484.774 245.673 0 135.68 217.045 245.672 484.774 245.672z"/><path d="M610.199 591.404s24.049-123.756 24.049-123.757c5.424-27.933.912-48.77-13.412-61.934-13.872-12.74-37.425-18.933-72.003-18.933h-41.643l11.919-61.319c.449-2.311-.158-4.702-1.655-6.518-1.498-1.816-3.729-2.868-6.083-2.868h-57.476c-3.774 0-7.018 2.674-7.738 6.378l-25.537 131.385c-2.323-14.783-8.042-27.494-17.2-37.977-16.859-19.298-43.526-29.082-79.265-29.082h-111.404c-3.773 0-7.017 2.674-7.737 6.378l-51.689 265.943c-.449 2.312.158 4.701 1.655 6.517 1.497 1.815 3.728 2.869 6.083 2.869h57.933c3.773 0 7.017-2.675 7.737-6.378l12.503-64.327h43.124c22.633 0 41.639-2.452 56.485-7.286 15.178-4.935 29.144-13.304 41.458-24.829 9.946-9.142 18.168-19.373 24.494-30.413l-10.329 53.143c-.449 2.312.158 4.701 1.656 6.517 1.498 1.815 3.729 2.869 6.082 2.869h57.477c3.773 0 7.018-2.675 7.738-6.378l28.368-145.981h39.438c16.805 0 21.725 3.347 23.062 4.786 1.217 1.312 3.743 5.938.912 20.519l-22.867 117.668c-.449 2.312.159 4.701 1.657 6.517 1.497 1.815 3.728 2.869 6.082 2.869h58.389c3.771 0 7.016-2.675 7.737-6.378zm-266.468-102.254c-3.61 18.55-10.414 31.785-20.222 39.336-9.965 7.673-25.906 11.564-47.379 11.564h-25.676l18.568-95.54h33.195c24.389 0 34.214 5.213 38.159 9.584 5.467 6.066 6.627 18.189 3.355 35.056zm512.26-73.288c-16.858-19.298-43.528-29.082-79.264-29.082h-111.403c-3.776 0-7.02 2.674-7.739 6.378l-51.688 265.943c-.449 2.312.158 4.701 1.655 6.517s3.728 2.869 6.083 2.869h57.933c3.772 0 7.018-2.675 7.735-6.378l12.504-64.327h43.123c22.634 0 41.64-2.452 56.486-7.286 15.178-4.935 29.145-13.304 41.457-24.829 10.27-9.438 18.723-20.034 25.125-31.488 6.392-11.441 10.986-24.212 13.658-37.956 6.587-33.883 1.317-60.921-15.665-80.361zm-60.083 73.288c-3.61 18.55-10.414 31.785-20.221 39.336-9.967 7.673-25.907 11.564-47.379 11.564h-25.678l18.569-95.54h33.194c24.389 0 34.214 5.213 38.159 9.584 5.469 6.066 6.63 18.189 3.356 35.056z" fill="#fff"/><path d="M302.216 436.629c22.01 0 36.679 4.062 44.013 12.188 7.327 8.125 9.074 22.074 5.239 41.839-4.006 20.584-11.718 35.275-23.15 44.078s-28.831 13.2-52.188 13.2h-35.239l21.632-111.305h39.693zm-141.154 223.976h57.933l13.742-70.705h49.622c21.896 0 39.907-2.295 54.048-6.901 14.141-4.595 26.992-12.309 38.56-23.136 9.708-8.922 17.562-18.765 23.578-29.529 6.008-10.754 10.278-22.629 12.801-35.616 6.13-31.525 1.504-56.08-13.863-73.67-15.367-17.591-39.814-26.386-73.328-26.386h-111.404l-51.689 265.943zm292.833-336.648h57.476l-13.742 70.706h51.204c32.217 0 54.44 5.624 66.671 16.856 12.231 11.24 15.895 29.451 11.005 54.625l-24.048 123.756h-58.389l22.865-117.669c2.602-13.386 1.646-22.516-2.873-27.384-4.519-4.868-14.134-7.306-28.838-7.306h-45.936l-29.608 152.359h-57.477l51.69-265.943zm300.499 112.672c22.01 0 36.679 4.062 44.013 12.188 7.329 8.125 9.073 22.074 5.238 41.839-4.006 20.584-11.716 35.275-23.15 44.078-11.433 8.803-28.83 13.2-52.186 13.2h-35.239l21.63-111.305h39.694zm-141.153 223.976h57.933l13.74-70.705h49.622c21.896 0 39.907-2.295 54.048-6.901 14.142-4.595 26.992-12.309 38.561-23.136 9.707-8.922 17.562-18.765 23.578-29.529 6.008-10.754 10.277-22.629 12.801-35.616 6.13-31.525 1.506-56.08-13.863-73.67-15.367-17.591-39.812-26.386-73.328-26.386h-111.404l-51.688 265.943z" fill="#000004"/></svg>