<svg xmlns="http://www.w3.org/2000/svg" xmlns:sodipodi="http://inkscape.org" width="1024" height="1024"><path fill="#646464" d="M388.894 490.407c0-30.954-8.827-46.848-26.479-47.717-7.024-.333-13.883.787-20.555 3.377-5.325 1.906-8.909 3.792-10.795 5.698v73.887c11.293 7.088 21.321 10.382 30.065 9.863 18.502-1.222 27.764-16.244 27.764-45.108zm21.776 1.285c0 15.727-3.688 28.78-11.105 39.16-8.268 11.75-19.726 17.8-34.375 18.132-11.044.351-22.419-3.108-34.126-10.361v67.154l-18.938-6.755v-149.06c3.107-3.812 7.107-7.085 11.955-9.861 11.271-6.568 24.967-9.946 41.088-10.112l.269.27c14.732-.187 26.087 5.863 34.064 18.129 7.438 11.252 11.168 25.671 11.168 43.304z"/><path fill="#646464" d="M526.412 535.765c0 21.094-2.113 35.7-6.34 43.823-4.248 8.121-12.327 14.605-24.264 19.435-9.676 3.812-20.141 5.886-31.37 6.236l-3.128-11.935c11.417-1.553 19.456-3.107 24.118-4.663 9.18-3.107 15.479-7.872 18.937-14.253 2.777-5.202 4.144-15.128 4.144-29.816v-4.933c-12.95 5.885-26.521 8.806-40.713 8.806-9.325 0-17.55-2.921-24.637-8.806-7.955-6.402-11.933-14.523-11.933-24.365v-78.819l18.937-6.485v79.336c0 8.474 2.736 15.001 8.204 19.58 5.472 4.58 12.558 6.776 21.239 6.61 8.682-.188 17.984-3.544 27.869-10.112v-92.556h18.937v102.917z"/><path fill="#646464" d="M600.34 547.948c-2.258.187-4.33.268-6.235.268-10.712 0-19.062-2.547-25.03-7.664-5.947-5.119-8.929-12.184-8.929-21.197v-74.593h-12.972v-11.914h12.972v-31.639l18.916-6.734v38.374h21.278v11.914h-21.278v74.073c0 7.108 1.906 12.143 5.718 15.086 3.275 2.423 8.476 3.812 15.561 4.164v9.862z"/><path fill="#646464" d="M715.005 546.394h-18.937v-73.101c0-7.438-1.742-13.84-5.2-19.186-4.001-6.051-9.554-9.076-16.681-9.076-8.682 0-19.538 4.58-32.573 13.736v87.626h-18.937v-174.731l18.937-5.966v79.585c12.103-8.806 25.322-13.219 39.68-13.219 10.028 0 18.151 3.377 24.367 10.112 6.236 6.732 9.344 15.125 9.344 25.154v79.066z"/><path fill="#646464" d="M815.663 487.424c0-11.893-2.259-21.714-6.755-29.484-5.346-9.468-13.654-14.463-24.885-14.98-20.762 1.202-31.12 16.078-31.12 44.589 0 13.074 2.154 23.994 6.506 32.758 5.553 11.169 13.882 16.681 24.988 16.494 20.844-.166 31.266-16.618 31.266-49.377zm20.74.125c0 16.929-4.33 31.019-12.97 42.268-9.511 12.6-22.646 18.918-39.41 18.918-16.618 0-29.567-6.318-38.911-18.918-8.475-11.249-12.701-25.338-12.701-42.268 0-15.912 4.578-29.298 13.737-40.196 9.676-11.563 22.396-17.363 38.124-17.363s28.532 5.8 38.395 17.363c9.157 10.898 13.736 24.284 13.736 40.196z"/><path fill="#646464" d="M944.978 546.394h-18.939v-77.244c0-8.474-2.549-15.083-7.646-19.85-5.097-4.746-11.893-7.044-20.367-6.859-8.992.166-17.55 3.11-25.673 8.806v95.147h-18.937v-97.488c10.898-7.935 20.928-13.116 30.084-15.539 8.641-2.259 16.266-3.377 22.834-3.377 4.496 0 8.723.434 12.7 1.306 7.44 1.719 13.489 4.91 18.152 9.593 5.2 5.18 7.791 11.395 7.791 18.669v86.836z"/><linearGradient id="a" gradientUnits="userSpaceOnUse" x1="-345.752" y1="554.087" x2="-114.008" y2="354.702" gradientTransform="matrix(.563 0 0 -.568 197.038 693.866)"><stop offset="0" stop-color="#5A9FD4"/><stop offset="1" stop-color="#306998"/></linearGradient><path fill="url(#a)" d="M125.08 372.361c-9.743.045-19.049.876-27.236 2.325-24.119 4.262-28.499 13.18-28.499 29.628v21.723h56.997v7.241h-78.387c-16.565 0-31.07 9.956-35.606 28.897-5.234 21.71-5.466 35.258 0 57.927 4.051 16.875 13.727 28.896 30.292 28.896h19.597v-26.04c0-18.812 16.277-35.407 35.606-35.407h56.931c15.848 0 28.499-13.047 28.499-28.963v-54.273c0-15.445-13.031-27.049-28.499-29.628-9.792-1.63-19.951-2.372-29.695-2.326zm-30.823 17.471c5.887 0 10.695 4.887 10.695 10.895 0 5.987-4.808 10.828-10.695 10.828-5.909 0-10.695-4.841-10.695-10.828 0-6.008 4.786-10.895 10.695-10.895z"/><linearGradient id="b" gradientUnits="userSpaceOnUse" x1="-24.416" y1="234.024" x2="-107.171" y2="351.109" gradientTransform="matrix(.563 0 0 -.568 197.038 693.866)"><stop offset="0" stop-color="#FFD43B"/><stop offset="1" stop-color="#FFE873"/></linearGradient><path fill="url(#b)" d="M190.381 433.277v25.31c0 19.624-16.637 36.138-35.606 36.138h-56.931c-15.594 0-28.499 13.346-28.499 28.963v54.273c0 15.447 13.432 24.533 28.499 28.964 18.042 5.306 35.343 6.265 56.931 0 14.349-4.154 28.499-12.516 28.499-28.964v-21.723h-56.931v-7.241h85.43c16.565 0 22.738-11.555 28.499-28.896 5.951-17.853 5.697-35.023 0-57.927-4.094-16.489-11.913-28.897-28.499-28.897h-21.392zm-32.02 137.444c5.908 0 10.695 4.842 10.695 10.828 0 6.008-4.787 10.895-10.695 10.895-5.887 0-10.695-4.887-10.695-10.895.001-5.987 4.808-10.828 10.695-10.828z"/><path sodipodi:nodetypes="ccccccccccccccccccccccc" fill="#646464" d="M981.856 415.964h3.319v-20.823h7.865v-2.483h-19.05v2.483h7.866v20.823m14.129 0h2.838v-19.02l6.157 19.018h3.157l6.417-18.953v18.955h3.093v-23.306h-4.094l-7.011 19.966-5.98-19.966h-4.577v23.306"/><radialGradient id="c" cx="-1574.189" cy="1026.805" r="61.725" gradientTransform="matrix(0 -.24 -1.055 0 1209.925 266.099)" gradientUnits="userSpaceOnUse"><stop offset="0" stop-color="#B8B8B8" stop-opacity=".498"/><stop offset="1" stop-color="#7F7F7F" stop-opacity="0"/></radialGradient><path sodipodi:ry="8.607" sodipodi:type="arc" sodipodi:cy="132.286" sodipodi:rx="48.948" sodipodi:cx="61.519" opacity=".444" fill="url(#c)" enable-background="new" d="M203.369 643.821c0 8.179-34.196 14.81-76.38 14.81s-76.381-6.631-76.381-14.81c0-8.18 34.197-14.812 76.381-14.812s76.38 6.633 76.38 14.812z"/></svg>