<svg xmlns="http://www.w3.org/2000/svg" xmlns:xlink="http://www.w3.org/1999/xlink" width="1024" height="1024"><linearGradient id="a" gradientUnits="userSpaceOnUse" x1="523.822" y1="11.37" x2="523.822" y2="1011.906"><stop offset="0" stop-color="#AD3531"/><stop offset=".064" stop-color="#AD3531"/><stop offset=".449" stop-color="#AD3531"/><stop offset="1" stop-color="#F16522"/></linearGradient><path fill-rule="evenodd" clip-rule="evenodd" fill="url(#a)" d="M960.178 962.164c.984 39.17-21.307 49.741-47.611 49.741h-777.526c-26.29 0-47.606-22.272-47.606-49.741v-900.377c0-27.468 13.209-53.584 47.479-50.104l777.653.369c26.305 0 47.611 22.266 47.611 49.734v900.378z"/><defs><path id="b" d="M960.241 965.734c0 30.479-16.985 47.567-50.845 46.03l-771.504.274c-29.679 1.06-50.547-23.906-50.458-49.875l.013-901.788c0-24.864 13.709-51.148 43.694-48.775l782.04.489c25.779.105 47.568 23.327 46.996 49.696l.064 903.949z"/></defs><clipPath id="c"><use xlink:href="#b" overflow="visible"/></clipPath><linearGradient id="d" gradientUnits="userSpaceOnUse" x1="589.297" y1="1200.363" x2="432.608" y2="923.721"><stop offset="0" stop-color="#F58E71"/><stop offset="0" stop-color="#F58E71"/><stop offset=".41" stop-color="#DC5241"/><stop offset=".99" stop-color="#A62C32"/><stop offset="1" stop-color="#A62C32"/></linearGradient><polygon clip-path="url(#c)" fill-rule="evenodd" clip-rule="evenodd" fill="url(#d)" points="88.111,1133.017 637.208,1095.73 679.489,542.078 512.202,881.181"/><linearGradient id="e" gradientUnits="userSpaceOnUse" x1="667.374" y1="967.957" x2="465.44" y2="832.447"><stop offset="0" stop-color="#9A3E34"/><stop offset="0" stop-color="#9A3E34"/><stop offset=".99" stop-color="#A13E36"/><stop offset="1" stop-color="#A13E36"/></linearGradient><polygon clip-path="url(#c)" fill-rule="evenodd" clip-rule="evenodd" fill="url(#e)" points="462.356,939.378 638.104,1095.357 590.91,769.604"/><linearGradient id="f" gradientUnits="userSpaceOnUse" x1="505.798" y1="1208.739" x2="303.863" y2="1073.228"><stop offset="0" stop-color="#9A3E34"/><stop offset="0" stop-color="#9A3E34"/><stop offset=".99" stop-color="#A13E36"/><stop offset="1" stop-color="#A13E36"/></linearGradient><polygon clip-path="url(#c)" fill-rule="evenodd" clip-rule="evenodd" fill="url(#f)" points="89.953,1132.273 638.738,1095.357 292.994,1068.201"/><linearGradient id="g" gradientUnits="userSpaceOnUse" x1="81.797" y1="869.859" x2="113.102" y2="1073.314"><stop offset="0" stop-color="#fff"/><stop offset="0" stop-color="#fff"/><stop offset=".23" stop-color="#E1896F"/><stop offset=".46" stop-color="#D96144"/><stop offset=".99" stop-color="#A41E22"/><stop offset="1" stop-color="#A41E22"/></linearGradient><polygon clip-path="url(#c)" fill-rule="evenodd" clip-rule="evenodd" fill="url(#g)" points="-13.257,890.043 90.439,1132.354 176.806,849.388"/><linearGradient id="h" gradientUnits="userSpaceOnUse" x1="382.77" y1="435.567" x2="531.569" y2="361.168"><stop offset="0" stop-color="#fff"/><stop offset="0" stop-color="#fff"/><stop offset=".54" stop-color="#C84838"/><stop offset=".99" stop-color="#C02D2F"/><stop offset="1" stop-color="#C02D2F"/></linearGradient><polygon clip-path="url(#c)" fill-rule="evenodd" clip-rule="evenodd" fill="url(#h)" points="354.706,394.251 560.92,395.178 434.472,465.063"/><linearGradient id="i" gradientUnits="userSpaceOnUse" x1="-48.623" y1="817.995" x2="-36.375" y2="940.623"><stop offset="0" stop-color="#fff"/><stop offset="0" stop-color="#fff"/><stop offset=".31" stop-color="#D96547"/><stop offset=".99" stop-color="#C04433"/><stop offset="1" stop-color="#C04433"/></linearGradient><polygon clip-path="url(#c)" fill-rule="evenodd" clip-rule="evenodd" fill="url(#i)" points="-53.141,773.251 -63.255,984.963 -10.291,888.34"/><path clip-path="url(#c)" fill-rule="evenodd" clip-rule="evenodd" fill="#AA3E35" d="M-63.255 983.687c4.041 145.638 109.128 147.811 153.885 149.088l-103.4-241.48-50.485 92.392z"/><linearGradient id="j" gradientUnits="userSpaceOnUse" x1="36.726" y1="1132.084" x2="-25.813" y2="919.912"><stop offset="0" stop-color="#984939"/><stop offset="0" stop-color="#984939"/><stop offset=".43" stop-color="#A93936"/><stop offset=".99" stop-color="#B83836"/><stop offset="1" stop-color="#B83836"/></linearGradient><path clip-path="url(#c)" fill-rule="evenodd" clip-rule="evenodd" fill="url(#j)" d="M-13.218 891.6l-16.226 193.309c30.626 41.819 72.747 45.462 116.967 42.2-31.995-79.578-95.87-238.73-100.741-235.509z"/><linearGradient id="k" gradientUnits="userSpaceOnUse" x1="516.471" y1="429.023" x2="656.659" y2="490.904"><stop offset="0" stop-color="#B8382F"/><stop offset="0" stop-color="#B8382F"/><stop offset=".44" stop-color="#A13A36"/><stop offset=".99" stop-color="#8C463A"/><stop offset="1" stop-color="#8C463A"/></linearGradient><path clip-path="url(#c)" fill-rule="evenodd" clip-rule="evenodd" fill="url(#k)" d="M446.218 458.311l227.567 31.956c-12.133-51.49-49.436-84.705-113.006-95.088l-114.561 63.132z"/><path fill-rule="evenodd" clip-rule="evenodd" fill="#fff" d="M184.53 454.162l-155.266 133.964-95.869 176.601-6.687 212.347c-2.048 50.103 11.226 89.539 39.462 117.186 47.289 46.305 120.496 52.403 123.513 52.213-9.615.844-1.073.089 544.025-44.704l52.236-446.351c7.046-45.692 11.46-67.826 11.46-91.663 0-37.894-5.921-74.427-8.183-78.569-18.123-92.277-118.443-101.432-119.479-101.482-.165-.013-236.662 1.366-236.662 1.366l-148.55 69.092zm164.831-61.223c2.572.063 204.513 4.949 204.513 4.949 3.685.193 94.477 5.882 109.919 89.26l.216 1.175.718 1.176c.102.168 6.537 11.574 6.537 50.807 0 22.94-2.204 55.393-9.173 100.686-.051.444-30.479 391.763-34.469 443.04-10.997.789-540.47 39.424-540.47 39.424-.613.037-68.836 3.615-111.891-38.623-23.683-23.231-35.651-56.148-35.651-97.938 0-3.068.063-6.188.19-9.348 0-.067 6.087-193.427 6.586-209.308 1.458-2.675 92.378-170.166 93.375-171.995 1.522-1.43 150.83-141.104 152.659-142.806 2.328-.896 154.577-59.578 156.941-60.499z"/><polygon clip-path="url(#c)" clip-rule="evenodd" stroke="#fff" points="88.124,1133.017 637.214,1095.73 679.489,542.072 512.202,881.193" fill="none"/><polygon clip-path="url(#c)" clip-rule="evenodd" stroke="#fff" points="462.344,939.364 638.109,1095.357 590.974,774.662" fill="none"/><polygon clip-path="url(#c)" clip-rule="evenodd" stroke="#fff" points="89.953,1132.273 638.745,1095.357 292.994,1068.201" fill="none"/><polygon clip-path="url(#c)" clip-rule="evenodd" stroke="#fff" points="-13.257,890.03 90.439,1132.354 176.806,849.388" fill="none"/><polygon clip-path="url(#c)" clip-rule="evenodd" stroke="#fff" points="354.706,394.245 560.92,395.178 446.205,458.311" fill="none"/><polygon clip-path="url(#c)" clip-rule="evenodd" stroke="#fff" points="-55.99,769.619 -63.255,984.951 -10.291,888.34" fill="none"/><path clip-path="url(#c)" clip-rule="evenodd" stroke="#fff" d="M661.913 633.674c29.215-88.241 35.962-214.838-101.888-238.343l-113.157 62.493 215.045 175.85z" fill="none"/><path clip-path="url(#c)" clip-rule="evenodd" stroke="#fff" d="M-63.255 983.674c4.041 145.65 109.128 147.823 153.885 149.101l-103.388-241.48-50.497 92.379z" fill="none"/><path clip-path="url(#c)" clip-rule="evenodd" stroke="#fff" d="M-13.218 891.6l-16.226 193.309c30.626 41.819 72.759 45.462 116.967 42.2-31.982-79.578-95.87-238.718-100.741-235.509z" fill="none"/><linearGradient id="l" gradientUnits="userSpaceOnUse" x1="297.125" y1="679.898" x2="308.659" y2="887.535"><stop offset="0" stop-color="#fff"/><stop offset="0" stop-color="#fff"/><stop offset=".23" stop-color="#DF896C"/><stop offset=".56" stop-color="#C04435"/><stop offset=".99" stop-color="#B03430"/><stop offset="1" stop-color="#B03430"/></linearGradient><polygon clip-path="url(#c)" fill-rule="evenodd" clip-rule="evenodd" fill="url(#l)" points="155.413,842.203 462.318,940.312 382.864,629.01"/><linearGradient id="m" gradientUnits="userSpaceOnUse" x1="488.195" y1="487.972" x2="522.727" y2="636.787"><stop offset="0" stop-color="#fff"/><stop offset="0" stop-color="#fff"/><stop offset=".18" stop-color="#DF8062"/><stop offset=".4" stop-color="#C84D37"/><stop offset=".99" stop-color="#B03430"/><stop offset="1" stop-color="#B03430"/></linearGradient><polygon clip-path="url(#c)" fill-rule="evenodd" clip-rule="evenodd" fill="url(#m)" points="386.599,651.333 661.442,633.394 446.447,457.793"/><linearGradient id="n" gradientUnits="userSpaceOnUse" x1="308.158" y1="1033.472" x2="134.743" y2="990.672"><stop offset="0" stop-color="#9D3633"/><stop offset="0" stop-color="#9D3633"/><stop offset=".54" stop-color="#A63532"/><stop offset=".99" stop-color="#B03439"/><stop offset="1" stop-color="#B03439"/></linearGradient><path clip-path="url(#c)" fill-rule="evenodd" clip-rule="evenodd" fill="url(#n)" d="M90.439 1132.248l85.702-283.871 284.617 91.433c-102.918 96.495-217.368 178.082-370.319 192.438z"/><linearGradient id="o" gradientUnits="userSpaceOnUse" x1="606.014" y1="825.345" x2="451.967" y2="687.277"><stop offset="0" stop-color="#923C36"/><stop offset="0" stop-color="#923C36"/><stop offset=".99" stop-color="#A93531"/><stop offset="1" stop-color="#A93531"/></linearGradient><path clip-path="url(#c)" fill-rule="evenodd" clip-rule="evenodd" fill="url(#o)" d="M388.721 650.558l73.061 289.404c85.944-90.365 163.09-187.534 200.868-307.744l-273.929 18.34z"/><linearGradient id="p" gradientUnits="userSpaceOnUse" x1="662.599" y1="572.004" x2="585.863" y2="489.968"><stop offset="0" stop-color="#8D3E36"/><stop offset="0" stop-color="#8D3E36"/><stop offset=".99" stop-color="#A93E36"/><stop offset="1" stop-color="#A93E36"/></linearGradient><path clip-path="url(#c)" fill-rule="evenodd" clip-rule="evenodd" fill="url(#p)" d="M661.906 633.686c29.234-88.246 35.969-214.85-101.867-238.354l-113.158 62.493 215.025 175.861z"/><radialGradient id="q" cx="475.942" cy="689.92" r="188.773" gradientUnits="userSpaceOnUse"><stop offset="0" stop-color="#B03430"/><stop offset="0" stop-color="#B03430"/><stop offset=".99" stop-color="#923834"/><stop offset="1" stop-color="#923834"/></radialGradient><path clip-path="url(#c)" fill-rule="evenodd" clip-rule="evenodd" fill="url(#q)" d="M389.118 651.003c66.051 40.599 199.168 122.134 201.869 123.646 4.205 2.35 57.396-89.708 69.459-141.765l-271.328 18.119z"/><radialGradient id="r" cx="214.5" cy="938.698" r="250.965" gradientUnits="userSpaceOnUse"><stop offset="0" stop-color="#AD3531"/><stop offset="0" stop-color="#AD3531"/><stop offset=".99" stop-color="#953A36"/><stop offset="1" stop-color="#953A36"/></radialGradient><path clip-path="url(#c)" fill-rule="evenodd" clip-rule="evenodd" fill="url(#r)" d="M176.027 848.377l114.563 221.05c67.762-36.739 120.803-81.51 169.375-129.465l-283.938-91.585z"/><polygon clip-path="url(#c)" clip-rule="evenodd" stroke="#fff" points="176.027,848.377 462.318,940.298 389.13,650.99" fill="none"/><polygon clip-path="url(#c)" clip-rule="evenodd" stroke="#fff" points="386.611,651.333 661.448,633.394 446.447,457.786" fill="none"/><path clip-path="url(#c)" clip-rule="evenodd" stroke="#fff" d="M90.439 1132.248l85.702-283.871 284.603 91.433c-102.904 96.495-217.354 178.082-370.305 192.438z" fill="none"/><path clip-path="url(#c)" clip-rule="evenodd" stroke="#fff" stroke-width="2" stroke-linecap="round" stroke-linejoin="round" d="M388.721 650.558l73.048 289.404c72.413-76.136 169.689-208.484 200.887-307.744l-273.935 18.34z" fill="none"/><path clip-path="url(#c)" clip-rule="evenodd" stroke="#fff" stroke-width=".5" d="M389.13 650.99c66.039 40.6 199.156 122.146 201.843 123.672 4.205 2.35 57.402-89.721 69.465-141.777l-271.308 18.105z" fill="none"/><path clip-path="url(#c)" clip-rule="evenodd" stroke="#fff" stroke-width=".5" d="M176.027 848.377l114.563 221.05c67.762-36.739 120.803-81.51 169.375-129.465l-283.938-91.585z" fill="none"/><path clip-path="url(#c)" clip-rule="evenodd" stroke="#fff" stroke-width=".5" d="M446.205 458.311l227.58 31.956c-12.127-51.496-49.436-84.705-113.006-95.088l-114.574 63.132z" fill="none"/><path clip-path="url(#c)" clip-rule="evenodd" stroke="#fff" d="M-55.99 769.619l43.118 122.291 187.325-42.008 213.898-198.785 60.335-191.72-95.041-67.108-161.559 60.473c-50.919 47.351-149.704 141.029-153.271 142.808-3.516 1.804-65.228 118.412-94.805 174.049z" fill="none"/><path clip-path="url(#c)" fill-rule="evenodd" clip-rule="evenodd" fill="#fff" stroke="#fff" d="M-55.99 769.604l43.118 122.306 187.325-42.008 213.886-198.785 60.348-191.72-93.98-65.146-162.632 58.516c-50.908 47.346-149.693 141.038-153.26 142.803-3.516 1.804-65.228 118.412-94.805 174.034z"/><linearGradient id="s" gradientUnits="userSpaceOnUse" x1="-132.828" y1="973.762" x2="442.899" y2="381.753"><stop offset="0" stop-color="#BB2026"/><stop offset="0" stop-color="#BB2026"/><stop offset=".07" stop-color="#fff"/><stop offset=".17" stop-color="#fff"/><stop offset=".27" stop-color="#C85841"/><stop offset=".33" stop-color="#973734"/><stop offset=".46" stop-color="#AD4231"/><stop offset=".72" stop-color="#B83D2F"/><stop offset=".99" stop-color="#DD4D2B"/><stop offset="1" stop-color="#DD4D2B"/></linearGradient><path clip-path="url(#c)" fill-rule="evenodd" clip-rule="evenodd" fill="url(#s)" d="M95.388 549.943c110.331-109.395 252.581-174.035 307.156-118.965 54.531 55.074-3.31 188.922-113.641 298.262-110.319 109.356-250.79 177.555-305.342 122.478-54.592-55.038 1.496-192.431 111.827-301.775z"/><g clip-rule="evenodd"><path enable-background="new" d="M95.388 549.936c110.331-109.387 252.581-174.027 307.156-118.963 54.531 55.074-3.297 188.917-113.628 298.268-110.332 109.355-250.803 177.541-305.355 122.477-54.592-55.026 1.496-192.431 111.827-301.782z" fill="none"/><path fill-rule="evenodd" fill="#fff" d="M90.772 545.287c-81.649 80.935-134.604 177.874-134.896 246.953v.59c0 26.726 7.749 48.095 23.029 63.488 13.978 14.107 33.299 21.318 57.43 21.434 67.75.309 168.706-56.164 257.184-143.861 120.33-119.256 169.183-251.456 113.676-307.53-14.334-14.462-34.342-21.847-59.457-21.961-68.403-.296-171.667 56.322-256.966 140.887zm-54.374 319.371c-20.497-1.314-36.75-5.997-48.191-17.558-12.864-12.967-19.333-31.396-19.238-54.792.283-65.793 51.707-159.106 131.021-237.729 82.993-82.281 180.368-131.326 245.523-131.046 21.513.097 38.407 6.184 50.204 18.088 49.439 49.928 2.914 175.331-110.217 287.447-84.819 84.071-168.053 140.768-249.102 135.59zm54.374-319.371z"/></g><polygon clip-path="url(#c)" fill="#fff" points="432.759,467.045 418.235,363.273 448.584,463.361 476.23,435.229 462.369,472.02 582.62,450.735 466.025,487.843 501.218,520.798 457.395,501.603 477.418,639.815 441.564,505.285 411.037,536.481 427.789,496.629 314.031,518.27 424.155,480.805 395.114,452.447"/><path d="M201.818 257.351c0 21.795 2.007 36.559 6.022 44.309 4.028 7.737 11.943 12.187 23.772 13.331 4.821.467 7.238 2.348 7.238 5.622 0 3.271-1.957 4.91-5.87 4.91-1.264 0-3.618-.168-7.07-.493-9.884-.761-19.426-1.146-28.631-1.146-7.699 0-14.541.22-20.525.667l-14.487 1.321-11.562.991c-3.208.333-5.459.499-6.724.499-4.133 0-6.204-1.572-6.204-4.717 0-2.573 1.15-4.196 3.453-4.898 7.826-2.411 13.235-5.653 16.228-9.732 2.992-4.078 4.489-10.306 4.489-18.688v-16.365l.178-6.721v-124.711c0-13.778-1.725-23.021-5.178-27.732-5.653-7.693-14.858-12.343-27.634-13.953-4.732-.696-7.086-2.678-7.086-5.946 0-3.262 1.614-4.898 4.834-4.898 1.268 0 3.338.171 6.216.502 8.862.896 18.581 1.34 29.167 1.34 11.625 0 25.715-.622 42.289-1.877 19.436-1.477 32.852-2.214 40.217-2.214 21.854 0 39.987 5.961 54.373 17.879 14.372 11.921 21.573 26.922 21.573 45.003 0 11.404-3.198 21.771-9.58 31.1-6.394 9.329-15.166 16.412-26.316 21.246-2.302.925-3.401 2.075-3.287 3.456.114 1.15.692 2.528 1.727 4.136 1.036 1.61 2.595 4.31 4.666 8.099l15.371 27.23 17.787 31.538c6.101 10.688 11.549 18.098 16.333 22.233 4.767 4.136 10.383 6.204 16.84 6.204 2.646 0 5.114-.232 7.429-.692 1.382-.337 2.646-.518 3.798-.518 2.072 0 3.107 1.331 3.107 3.964 0 3.338-4.707 7.118-14.093 11.343-9.398 4.234-17.724 6.343-24.986 6.343-11.855 0-22.788-5.8-32.788-17.403-10.012-11.605-23.018-33.547-39.001-65.831-6.216-12.752-11.33-20.824-15.357-24.213-4.031-3.389-10.59-5.083-19.68-5.083h-10.691l-7.776 1.377c-1.725.917-2.583 3.67-2.583 8.257v34.931zm0-134.742v59.749c0 7.369.946 12.032 2.853 13.988 1.893 1.957 6.419 2.935 13.553 2.935 20.487 0 33.186-.373 38.07-1.121 4.896-.749 9.476-3.078 13.732-6.995 8.401-7.597 12.61-18.073 12.61-31.429 0-17.384-5.679-31.744-17.008-43.083-11.343-11.34-25.768-17.012-43.26-17.012-7.826 0-13.209 1.642-16.151 4.923-2.927 3.282-4.399 9.298-4.399 18.045zm323.991 58.034v106.866c0 11.031.921 17.847 2.763 20.429 1.837 2.583 6.787 3.875 14.846 3.875l3.966-.174c1.378 0 2.413.124 3.105.352 1.957.705 2.941 1.995 2.941 3.875 0 4.117-3.926 6.175-11.777 6.175h-8.315c-4.727 0-8.424.117-11.085.34-7.045.454-15.243 1.811-24.591 4.059-1.15.346-2.198.511-3.119.511-2.532 0-3.799-2.122-3.799-6.365 0-2.29.118-4.247.346-5.845.231-2.296.347-4.015.347-5.167 0-3.44-.756-5.215-2.252-5.333-.575 0-1.496.692-2.748 2.067l-6.216 6.374c-10.561 11.01-23.26 16.521-38.081 16.521-16.999 0-29.812-4.72-38.43-14.157-8.621-9.431-12.928-23.409-12.928-41.933 0-24.508.458-45.735 1.379-63.685.116-3.22.168-5.98.168-8.283 0-7.823-3.389-12.022-10.192-12.599l-6.918-.519c-3.224-.229-4.72-1.789-4.488-4.679.114-2.197 1.867-3.67 5.282-4.421 3.399-.752 9.949-1.127 19.64-1.127 9.004 0 17.021-1.16 24.054-3.479 3.121-.921 5.537-1.381 7.265-1.381 1.957 0 2.941 1.323 2.941 3.967 0 3.104-.115 6.267-.347 9.481-1.035 12.187-1.546 33.51-1.546 63.97 0 23.45 2.122 39.109 6.365 46.984 4.24 7.871 12.73 11.809 25.48 11.809 9.974 0 17.673-2.967 23.069-8.9 5.396-5.934 8.094-14.471 8.094-25.62v-64.292c0-9.767-.896-15.771-2.685-18.012-1.778-2.24-6.816-3.878-15.09-4.914-3.567-.348-5.345-1.747-5.345-4.196 0-3.614 3.452-5.418 10.37-5.418 20.04 0 33.926-1.354 41.651-4.066 1.492-.562 2.712-.845 3.632-.845 1.608-.117 2.416 1.036 2.416 3.446l-.168 4.309zm90.524 23.609c0 1.613.394 2.471 1.2 2.588l1.729-1.896c11.711-17.686 27.715-26.532 48.038-26.532 17.686 0 31.959 5.93 42.815 17.791 10.838 11.86 16.271 27.464 16.271 46.809 0 25.105-7.364 45.748-22.089 61.921-14.732 16.183-33.491 24.27-56.271 24.27-7.942 0-16.187-1.331-24.763-3.989-8.57-2.652-15.17-5.946-19.757-9.872-1.499-1.395-2.599-2.027-3.291-1.913-1.149.115-3.614 2.757-7.413 7.928-4.593 6.209-7.75 9.367-9.478 9.481-1.843.118-2.751-1.438-2.751-4.653 0-2.071.119-4.892.35-8.458.686-8.167 1.035-14.316 1.035-18.46v-171.347c0-8.395-1.474-14.49-4.415-18.289-2.929-3.792-7.736-5.692-14.407-5.692-2.19 0-3.278-1.283-3.278-3.846 0-2.329 1.321-3.844 3.977-4.542l10.936-2.414c10.511-2.525 22.593-7.922 36.239-16.196 1.022-.572 1.995-.918 2.915-1.032 1.602-.114 2.408 2.992 2.408 9.316v119.027zm0 15.716v66.511c0 5.416 3.081 11.638 9.268 18.658 8.481 9.91 19.071 14.859 31.789 14.859 12.038 0 21.624-4.749 28.788-14.252 7.16-9.5 10.752-22.313 10.752-38.439 0-19.232-4.754-35.241-14.27-48.025-9.516-12.785-21.434-19.179-35.746-19.179-13.855 0-24.062 6.623-30.581 19.867zm177.986-2.915l29.425 56.07c2.776 5.177 4.796 7.763 6.061 7.763 1.728 0 4.326-4.319 7.775-12.962l7.788-19.362c7.839-19.706 11.752-33.821 11.752-42.353 0-4.031-1.701-7.744-5.101-11.146-3.417-3.398-7.598-5.675-12.56-6.829-3.119-.569-4.732-1.769-4.847-3.596-.114-2.516 1.149-3.77 3.812-3.77 1.265 0 3.17.112 5.704.336 9.58 1.004 17.877 1.506 24.908 1.506 6.461 0 11.651-.235 15.577-.702 2.878-.35 4.834-.527 5.882-.527 2.3 0 3.45 1.257 3.45 3.767 0 2.28-1.493 3.824-4.485 4.621-6.905 1.846-12.774 8.757-17.609 20.738l-3.467 8.642-63.844 158.816c-1.486 3.566-3.773 5.358-6.866 5.358-.922 0-2.408-.057-4.467-.171l-9.617-.692c-1.836-.114-2.693-.804-2.579-2.065.114-1.036.635-2.185 1.556-3.452 18.801-23.235 28.212-39.116 28.212-47.623 0-2.414-1.264-6.149-3.799-11.212l-55.063-108.53-4.668-9.315c-2.758-5.061-6.902-8.624-12.44-10.695-2.071-.81-3.106-1.966-3.106-3.469 0-3.004 1.723-4.51 5.178-4.51 1.613 0 3.284.111 5.013.333 9.783 1.004 18.695 1.506 26.763 1.506 10.476 0 20.951-.632 31.42-1.906 1.5-.229 2.649-.343 3.455-.343 2.993 0 4.485 1.506 4.485 4.517 0 2.548-1.378 4.11-4.154 4.688l-5.37.864c-6.471 1.153-9.705 4.831-9.705 11.044-.003 2.53 1.839 7.419 5.531 14.661z" fill="#fff"/><path fill="#851417" d="M130.515 6.5c-25.077 0-45.485 21.05-45.485 46.924v915.144c0 25.887 20.408 46.933 45.485 46.933h787.076c25.066 0 45.478-21.046 45.478-46.933v-915.144c0-25.874-20.411-46.924-45.478-46.924h-787.076zm15.614 929.047l-45.818-895.693c0-11.079 8.249-20.09 18.388-20.09l767.179 44.602c10.146 0 18.378 9.018 18.378 20.09l45.294 895.952c0 11.092-8.249 20.094-18.39 20.094l-766.644-44.862c-10.139 0-18.387-9.014-18.387-20.093z"/></svg>