<svg version="1.2" baseProfile="tiny" xmlns="http://www.w3.org/2000/svg" width="1024" height="1024"><path fill="#D1A41A" d="M181.805 624.724c11.482 14.161 24.246 28.512 38.289 42.942-40.888 12.301-67.695 35.148-84.415 55.321-26.456 31.929-40.46 74.098-37.24 110.288h-70.412c14.121-30.644 70.488-119.171 153.778-208.551z"/><path fill="#D1A41A" d="M997.473 852.479h-85.618c-196.41-102.492-368.847-174.762-552.028-190.553.389-25.488 4.927-54.348 13.655-86.508l-16.875-4.539c-8.962 33.051-13.656 62.96-14.199 89.729-19.086-1.28-38.29-1.901-57.686-1.901-16.41 0-31.383 1.516-45.039 4.152-17.806-17.768-32.974-34.759-45.853-50.856 84.491-87.985 223.643-167.591 344.756-197.538 34.1 113.353 107.303 191.019 196.137 243.272 6.517-3.725 12.919-7.604 19.204-11.714l154.979 166.849 6.789-.583c42.32-3.645 66.373 19.321 72.737 26.458 4.695 5.196 7.488 9.97 9.041 13.732z"/><path fill="#FFDC76" d="M921.863 294.398c3.145 153.972-75.411 276.519-185.393 339.366-186.674-92.987-221.82-328.618-190.008-455.007 8.842 48.336 24.943 78.636 59.701 93.494 75.803-21.689 180.116-23.397 256.968-2.213 32.005-23.276 44.419-58.849 51.208-89.921 8.457 36.153 7.487 114.281 7.524 114.281z"/><polygon points="452.304,440.176 480.787,524.574 394.281,466.551"/><polygon points="368.963,477.101 399.556,529.848 335.205,497.146"/><polygon points="299.336,518.243 314.105,570.993 269.798,540.397"/><polygon points="770.899,659.607 743.472,701.807 791.997,679.652"/><polygon points="814.151,708.137 769.847,741.896 831.033,726.071"/><polygon points="706.546,250.286 739.251,322.023 760.349,249.232"/><polygon points="540.921,354.725 592.613,382.152 546.194,385.319"/><polygon points="553.578,410.641 585.226,423.298 558.855,430.682"/><polygon points="922.814,374.772 880.615,392.707 915.427,397.98"/><polygon points="905.934,426.461 873.232,435.959 899.604,445.453"/><rect x="523.938" y="505.639" width="101.81" height="12.566"/><rect x="523.938" y="475.468" width="101.81" height="12.57"/><rect x="834.825" y="505.639" width="101.81" height="12.566"/><rect x="834.825" y="475.468" width="101.81" height="12.57"/><path d="M798.941 400.95h-165.914v-11.312h51.632c6.357-27.223 7.615-53.242-.053-66.433-3.273-5.607-7.797-8.229-14.252-8.229-29.52 0-41.714 31.216-42.222 32.542l.007-.007-10.592-3.974c.606-1.629 15.381-39.873 52.807-39.873 10.444 0 18.752 4.796 24.019 13.851 9.35 16.063 8.251 43.854 1.917 72.124h90.6c12.035-35.361 37.168-52.034 79.158-52.034v11.309c-45.514 0-58.262 19.294-67.369 40.725h49.436l-.114 11.255-49.06.056zm7.437 55.868l.072-.012c-13.419-19.787-17.669-36.679-12.059-55.913l-11.524.057c-4.016 12.805-2.405 32.096 7.482 48.647h-115.118c7.004-14.029 13.498-31.133 18.24-48.647h-11.717c-5.229 18.571-12.574 36.949-20.84 51.507l-2.675 4.706 64.6 40.665-36.369 23.965 6.229 9.448 40.649-26.799 43.882 28.637 6.027-9.573-40.688-25.171s60.834-39.517 63.856-41.445l-.047-.072zm-73.165 34.171l-47.783-30.083 93.38.023-45.597 30.06zm207.639-210.233c-.076-19.669-6.198-102.802-17.457-125.692-30.527 11.6-86.08 49.189-98.658 87.626-60.251-8.998-128.177-7.933-187.685 2.364-9.941-41.354-59.834-73.002-97.476-90.831-15.878 26.792-22.913 88.914-21.125 132.98l-.208.14c6.982 185.045 97.76 300.258 216.466 370.086 122.123-69.783 209.37-205.824 205.99-376.757l.153.084zm-101.628-35.676l1.333.247-1.333-.247zm-7.592-1.31c1.068.17 2.144.364 3.22.545-1.077-.182-2.145-.367-3.22-.545zm90.217 50.336c3.145 153.972-75.412 276.516-185.39 339.366-186.67-93.013-221.832-328.622-190-455.003 8.854 48.317 24.924 78.621 59.717 93.486 75.775-21.688 180.094-23.401 256.93-2.208 32.027-23.284 44.445-58.849 51.227-89.921 8.471 36.159 7.493 114.265 7.516 114.28zm79.609 532.695c-19.169-21.445-56.728-31.595-88.088-30.845-22.261-26.496-151.309-162.394-151.309-162.394l-8.948 11.263 155.802 167.735 6.766-.579c42.332-3.626 66.396 19.332 72.761 26.454 4.675 5.225 7.493 9.99 9.023 13.729h-85.633c-196.391-102.477-368.839-174.74-552.02-190.522.402-25.492 4.94-54.35 13.648-86.505l-16.849-4.565c-8.952 33.055-13.668 62.986-14.201 89.74-19.086-1.266-38.297-1.921-57.677-1.921-16.436 0-31.404 1.526-45.056 4.179-17.805-17.794-32.974-34.755-45.864-50.852 85.097-88.642 225.583-168.744 347.331-198.202l-3.94-17.056c-131.09 31.611-274.578 117.68-354.534 200.801-37.105-50.083-51.827-91.179-56.199-122.324-5.523-39.335 3.866-75.419 27.152-104.352 36.454-45.287 88.251-48.477 141.506-39.521-1.04 8.41.066 16.449 3.434 21.423 14.085 20.802 89.782 28.11 134.966 7.952-33.344-46.726-100.885-69.54-119.6-60.398-6.2 3.027-10.876 8.588-14.081 15.074-18.408-3.292-36.691-5.744-50.055-5.645-46.969.345-82.875 16.756-109.769 50.17-26.386 32.781-37.05 73.491-30.841 117.725 5.881 41.896 26.625 86.455 61.391 132.666-5.775 6.194-11.358 12.312-16.729 18.321-84.738 94.818-146.678 196.491-146.678 213.337v8.729h111.787l-1.959-10.35c-6.313-33.364 6.294-75.067 32.118-106.234 16.212-19.567 43.059-41.9 85.22-52.204 37.486 36.585 85.247 75.438 138.41 112.925h83.07v-8.729c0-9.85-4.884-18.473-13.752-24.272-13.123-8.581-33.382-9.763-51.99-3.417-17.741-19.757-27.688-46.15-29.836-78.932 180.288 15.965 352.736 88.77 547.316 190.416h107.061l1.401-7.016c2.001-9.99-3.448-23.374-14.555-35.804zm-865.787-104.105c-26.441 31.913-40.456 74.07-37.246 110.265h-70.42c14.149-30.621 70.512-119.141 153.79-208.551 11.475 14.184 24.257 28.511 38.297 42.956-40.888 12.29-67.695 35.146-84.421 55.33z"/></svg>