<svg baseProfile="tiny" height="1024" version="1.2" width="1024" xmlns="http://www.w3.org/2000/svg"><g stroke="#464646" stroke-miterlimit="10" stroke-width="20"><polygon fill="#fff" points="567.875,920.047 174.757,692.91 174.903,238.855 568.182,12 961.318,239.147 961.154,693.212"/><polygon points="175.032,240.066 174.939,240.135 174.939,693.282 567.875,920.047 567.875,920.047 567.875,466.716" fill="none"/><polygon points="174.939,238.855 174.939,238.985 567.9,466.01 961.18,239.166 961.18,239.034 568.221,12" fill="none"/></g><g stroke="#464646" stroke-miterlimit="10" stroke-width="14"><polygon fill="#fff" points="288.86,951 92.312,837.438 92.385,610.423 289.014,497 485.57,610.57 485.49,837.588"/><polygon points="92.403,610.423 92.403,610.489 288.872,723.993 485.502,610.578 485.502,610.513 289.033,497" fill="none"/><polyline points="288.86,951 288.872,723.993 92.365,610.493 92.312,610.525 92.312,837.438" fill="none"/></g><g stroke="#464646" stroke-miterlimit="10" stroke-width="14"><polygon fill="#fff" points="492.888,988.119 365.175,914.328 365.223,766.819 492.988,693.119 620.707,766.915 620.654,914.426"/><polygon points="365.234,766.819 365.234,766.862 492.896,840.614 620.662,766.92 620.662,766.877 493.001,693.119" fill="none"/><polyline points="492.888,988.119 492.896,840.614 365.21,766.864 365.175,766.886 365.175,914.328" fill="none"/></g></svg>