<svg baseProfile="tiny" height="1024" version="1.2" width="1024" xmlns="http://www.w3.org/2000/svg"><g fill="#737373" stroke="#fff" stroke-miterlimit="10" stroke-width="20"><polygon points="567.875,920.047 174.757,692.91 174.903,238.855 568.182,12 961.318,239.147 961.154,693.212"/><polygon points="175.032,240.066 174.939,240.135 174.939,693.282 567.875,920.047 567.875,920.047 567.875,466.716"/><polygon points="174.939,238.855 174.939,238.985 567.9,466.01 961.18,239.166 961.18,239.034 568.221,12"/></g><g stroke="#464646" stroke-miterlimit="10" stroke-width="14"><polygon fill="#fff" points="288.86,952 92.312,838.438 92.385,611.423 289.014,498 485.57,611.57 485.49,838.588"/><polygon points="92.403,611.423 92.403,611.489 288.872,724.993 485.502,611.578 485.502,611.513 289.033,498" fill="none"/><polyline points="288.86,952 288.872,724.993 92.365,611.493 92.312,611.525 92.312,838.438" fill="none"/></g><g fill="#115193" stroke="#fff" stroke-miterlimit="10" stroke-width="14"><polygon points="493.669,998.5 365.956,924.708 366.003,777.2 493.769,703.5 621.489,777.295 621.435,924.807"/><polygon points="366.045,777.594 366.014,777.615 366.014,924.831 493.669,998.5 493.669,998.5 493.669,851.226"/><polygon points="366.014,777.2 366.014,777.241 493.678,850.995 621.442,777.301 621.442,777.259 493.781,703.5"/></g></svg>