<svg baseProfile="tiny" height="1024" version="1.2" width="1024" xmlns="http://www.w3.org/2000/svg"><g stroke-miterlimit="10" stroke-width="23"><g stroke="#464646"><polygon fill="#fff" points="511.821,1010 80.628,760.861 80.787,262.828 512.159,14 943.372,263.151 943.197,761.193"/><polygon points="80.827,262.828 80.827,262.972 511.849,511.986 943.225,263.172 943.225,263.027 512.201,14" fill="none"/><polyline points="511.821,1010 511.849,511.986 80.744,262.986 80.628,263.055 80.628,760.861" fill="none"/></g><g fill="#AE1F23" stroke="#fff"><polygon points="511.921,798.432 263.914,655.137 264.006,368.686 512.115,225.569 760.135,368.87 760.031,655.327"/><polygon points="264.087,369.45 264.029,369.493 264.029,655.372 511.921,798.432 511.921,798.432 511.921,512.438"/><polygon points="264.029,368.686 264.029,368.768 511.938,511.992 760.047,368.882 760.047,368.799 512.14,225.569"/></g></g></svg>
